<svg xmlns="http://www.w3.org/2000/svg" viewBox="0 0 562 660">
<style type="text/css">
	.st0{fill:#FFFFFF;}
</style>
<g>
	<g>
		<path class="st0" d="M47.3,325.4c0,0-2.72-0.45-4.64,0.96c-1.93,1.41-2.33,4.13-2.33,4.13s2.72,0.44,4.65-0.96
			C46.89,328.13,47.3,325.4,47.3,325.4z"/>
		<path class="st0" d="M50.24,333.71c0,0,1.72-1.91,1.59-4.12c-0.13-2.22-2.06-3.91-2.06-3.91s-1.72,1.9-1.59,4.12
			C48.31,332.02,50.24,333.71,50.24,333.71z"/>
		<path class="st0" d="M309.61,33.74c1.75,0.99,3.99,0.36,3.99,0.36s-0.6-2.24-2.35-3.24c-1.75-0.99-3.99-0.36-3.99-0.36
			S307.86,32.74,309.61,33.74z"/>
		<path class="st0" d="M312.8,28.65c1.81-0.97,2.48-3.25,2.48-3.25s-2.27-0.7-4.08,0.27c-1.81,0.97-2.47,3.25-2.47,3.25
			S310.99,29.62,312.8,28.65z"/>
		<path class="st0" d="M308.29,26.84c0.1-1.34-0.91-2.51-0.91-2.51s-1.19,1-1.29,2.34c-0.11,1.34,0.91,2.51,0.91,2.51
			S308.18,28.18,308.29,26.84z"/>
		<path class="st0" d="M333.16,69.03c-1.51,1.47-1.53,3.9-1.53,3.9s2.43,0.05,3.95-1.41c1.51-1.47,1.53-3.9,1.53-3.9
			S334.67,67.56,333.16,69.03z"/>
		<path class="st0" d="M333.32,76.58c1.59,0.27,3.09-0.81,3.09-0.81s-1.06-1.52-2.65-1.8c-1.59-0.27-3.09,0.81-3.09,0.81
			S331.73,76.31,333.32,76.58z"/>
		<path class="st0" d="M330.6,69.2c-0.45-2.11-2.54-3.45-2.54-3.45s-1.37,2.08-0.92,4.18c0.45,2.11,2.54,3.44,2.54,3.44
			S331.05,71.3,330.6,69.2z"/>
		<path class="st0" d="M324.66,73.38c0,0,0.66,1.49,1.98,1.99c1.32,0.5,2.79-0.18,2.79-0.18s-0.66-1.49-1.97-1.99
			C326.14,72.7,324.66,73.38,324.66,73.38z"/>
		<path class="st0" d="M145.66,64.26c3.05-1.32,4.44-4.9,4.44-4.9s-3.56-1.44-6.62-0.12c-3.05,1.32-4.44,4.9-4.44,4.9
			S142.61,65.57,145.66,64.26z"/>
		<path class="st0" d="M141.62,66.87c-2.19-1.29-5.02-0.53-5.02-0.53s0.72,2.84,2.91,4.13c2.19,1.28,5.02,0.53,5.02,0.53
			S143.81,68.16,141.62,66.87z"/>
		<path class="st0" d="M139.61,58.05c0.52-3.36-1.83-6.51-1.83-6.51s-3.18,2.3-3.7,5.66c-0.52,3.36,1.83,6.5,1.83,6.5
			S139.1,61.41,139.61,58.05z"/>
		<path class="st0" d="M134.54,66.24c0,0-0.14-2.56-1.8-4.03c-1.67-1.48-4.23-1.3-4.23-1.3s0.14,2.56,1.8,4.04
			C131.98,66.42,134.54,66.24,134.54,66.24z"/>
		<path class="st0" d="M340.88,51.82c0,0,1.54,2.73,4.16,3.44c2.62,0.7,5.33-0.88,5.33-0.88s-1.54-2.73-4.17-3.43
			C343.58,50.24,340.88,51.82,340.88,51.82z"/>
		<path class="st0" d="M337.95,56.1c0.75,1.93,2.94,2.89,2.94,2.89s0.99-2.18,0.24-4.11c-0.74-1.93-2.94-2.89-2.94-2.89
			S337.21,54.17,337.95,56.1z"/>
		<path class="st0" d="M344.33,48.23c2.03-1.88,2.13-5.08,2.13-5.08s-3.2-0.15-5.23,1.74c-2.03,1.88-2.13,5.08-2.13,5.08
			S342.29,50.11,344.33,48.23z"/>
		<path class="st0" d="M336.92,50.88c0,0,1.21-1.71,0.9-3.49c-0.31-1.79-2.04-2.97-2.04-2.97s-1.21,1.71-0.9,3.49
			C335.21,49.7,336.92,50.88,336.92,50.88z"/>
		<path class="st0" d="M375.92,105.36c0,0,0.94-1.16,0.8-2.44c-0.14-1.28-1.31-2.21-1.31-2.21s-0.94,1.16-0.8,2.44
			C374.75,104.44,375.92,105.36,375.92,105.36z"/>
		<path class="st0" d="M378.32,105.92c0.73-0.67,0.77-1.8,0.77-1.8s-1.14-0.06-1.87,0.61c-0.73,0.66-0.77,1.8-0.77,1.8
			S377.59,106.58,378.32,105.92z"/>
		<path class="st0" d="M371.1,104.39c0,0,0.49,1.44,1.68,2.02c1.19,0.58,2.62,0.07,2.62,0.07s-0.49-1.44-1.67-2.02
			C372.54,103.88,371.1,104.39,371.1,104.39z"/>
		<path class="st0" d="M374.48,107.48c-0.74,0.45-0.97,1.42-0.97,1.42s0.97,0.24,1.7-0.21c0.73-0.45,0.96-1.42,0.96-1.42
			S375.22,107.03,374.48,107.48z"/>
		<path class="st0" d="M89.73,242.41c0,0-2.1,2.59-1.79,5.45c0.31,2.87,2.93,4.93,2.93,4.93s2.11-2.58,1.79-5.45
			C92.34,244.48,89.73,242.41,89.73,242.41z"/>
		<path class="st0" d="M96.24,254.04c1.63-1.49,1.72-4.02,1.72-4.02s-2.54-0.13-4.17,1.35c-1.62,1.48-1.72,4.02-1.72,4.02
			S94.61,255.53,96.24,254.04z"/>
		<path class="st0" d="M85.98,250.77c-2.65-1.29-5.86-0.15-5.86-0.15s1.09,3.22,3.74,4.51c2.65,1.29,5.85,0.15,5.85,0.15
			S88.63,252.06,85.98,250.77z"/>
		<path class="st0" d="M87.66,257.53c-1.65,1-2.16,3.17-2.16,3.17s2.16,0.54,3.81-0.46c1.64-1,2.15-3.16,2.15-3.16
			S89.31,256.53,87.66,257.53z"/>
		<path class="st0" d="M28.62,157.75c0,0-1.16-1.81-2.99-2.19c-1.82-0.38-3.62,0.8-3.62,0.8s1.16,1.81,2.99,2.2
			C26.82,158.94,28.62,157.75,28.62,157.75z"/>
		<path class="st0" d="M28.33,155.67c0.58,1.29,2.12,1.86,2.12,1.86s0.59-1.53,0.01-2.83c-0.59-1.3-2.12-1.87-2.12-1.87
			S27.74,154.37,28.33,155.67z"/>
		<path class="st0" d="M494.38,165.46c1.37,0.97,3.28,0.63,3.28,0.63s-0.32-1.91-1.69-2.88c-1.37-0.97-3.28-0.63-3.28-0.63
			S493.01,164.49,494.38,165.46z"/>
		<path class="st0" d="M492.19,164.41c-0.02-1.28-1.09-2.3-1.09-2.3s-1.04,1.06-1.02,2.34c0.02,1.28,1.09,2.3,1.09,2.3
			S492.21,165.69,492.19,164.41z"/>
		<path class="st0" d="M495.46,161.23c1.58-0.66,2.32-2.5,2.32-2.5s-1.82-0.77-3.41-0.11c-1.58,0.66-2.32,2.5-2.32,2.5
			S493.88,161.89,495.46,161.23z"/>
		<path class="st0" d="M491.86,159.36c0.2-1.1-0.55-2.16-0.55-2.16s-1.07,0.73-1.26,1.84c-0.2,1.1,0.55,2.16,0.55,2.16
			S491.67,160.46,491.86,159.36z"/>
		<path class="st0" d="M448.37,280.2c2.62,1.06,5.61-0.23,5.61-0.23s-1.25-3.01-3.87-4.08c-2.62-1.06-5.61,0.23-5.61,0.23
			S445.75,279.14,448.37,280.2z"/>
		<path class="st0" d="M443.61,283.53c0,0,1.29-2.13,0.77-4.22c-0.53-2.09-2.67-3.35-2.67-3.35s-1.29,2.13-0.77,4.22
			C441.47,282.26,443.61,283.53,443.61,283.53z"/>
		<path class="st0" d="M451.38,267.86c0,0-3.29-0.56-5.63,1.13c-2.34,1.69-2.85,4.98-2.85,4.98s3.28,0.56,5.62-1.13
			C450.87,271.16,451.38,267.86,451.38,267.86z"/>
		<path class="st0" d="M440.19,267.83c0,0-1.47,1.61-1.37,3.49c0.1,1.88,1.73,3.33,1.73,3.33s1.47-1.61,1.37-3.49
			C441.82,269.28,440.19,267.83,440.19,267.83z"/>
		<path class="st0" d="M198.33,57.2c0,0,1.44-2.93,0.51-5.59c-0.93-2.67-3.88-4.06-3.88-4.06s-1.44,2.93-0.51,5.6
			C195.38,55.81,198.33,57.2,198.33,57.2z"/>
		<path class="st0" d="M203.72,57.2c1.22-1.77,0.76-4.22,0.76-4.22s-2.45,0.43-3.68,2.21c-1.22,1.77-0.75,4.22-0.75,4.22
			S202.5,58.98,203.72,57.2z"/>
		<path class="st0" d="M192.15,60.97c2.81,0.64,5.62-1.15,5.62-1.15s-1.75-2.84-4.56-3.48c-2.81-0.64-5.62,1.15-5.62,1.15
			S189.34,60.33,192.15,60.97z"/>
		<path class="st0" d="M194.95,65.92c0,0,2.18,0.04,3.53-1.28c1.35-1.32,1.36-3.49,1.36-3.49s-2.18-0.04-3.52,1.28
			C194.96,63.74,194.95,65.92,194.95,65.92z"/>
		<path class="st0" d="M27.44,316.55c0,0-0.89-3.14-3.37-4.5c-2.48-1.36-5.6-0.43-5.6-0.43s0.89,3.14,3.37,4.5
			C24.32,317.48,27.44,316.55,27.44,316.55z"/>
		<path class="st0" d="M31.45,312.94c-0.28-2.14-2.26-3.64-2.26-3.64s-1.53,1.96-1.26,4.1c0.28,2.14,2.26,3.64,2.26,3.64
			S31.73,315.08,31.45,312.94z"/>
		<path class="st0" d="M25.37,323.48c2.52-1.4,3.41-4.61,3.41-4.61s-3.2-0.94-5.72,0.47c-2.52,1.4-3.41,4.61-3.41,4.61
			S22.86,324.89,25.37,323.48z"/>
		<path class="st0" d="M32.53,321.98c0.12-1.88-1.33-3.51-1.33-3.51s-1.65,1.43-1.76,3.31c-0.12,1.88,1.33,3.51,1.33,3.51
			S32.41,323.86,32.53,321.98z"/>
		<path class="st0" d="M239.55,182.34c0,0,0.33-1.52-0.4-2.65c-0.74-1.13-2.26-1.44-2.26-1.44s-0.33,1.52,0.4,2.65
			C238.03,182.03,239.55,182.34,239.55,182.34z"/>
		<path class="st0" d="M242.05,181.73c0.36-0.96-0.13-2.04-0.13-2.04s-1.08,0.48-1.45,1.44c-0.36,0.96,0.13,2.04,0.13,2.04
			S241.69,182.69,242.05,181.73z"/>
		<path class="st0" d="M237.12,184.79c1.38-0.02,2.47-1.17,2.47-1.17s-1.13-1.11-2.51-1.09c-1.38,0.02-2.47,1.17-2.47,1.17
			S235.75,184.82,237.12,184.79z"/>
		<path class="st0" d="M240.47,185.77c0.47-0.77,0.23-1.77,0.23-1.77s-1.01,0.23-1.49,0.99c-0.48,0.76-0.23,1.77-0.23,1.77
			S240,186.53,240.47,185.77z"/>
		<path class="st0" d="M460.99,119.31c1.75,0.45,3.55-0.63,3.55-0.63s-1.06-1.81-2.81-2.26c-1.75-0.45-3.55,0.63-3.55,0.63
			S459.24,118.86,460.99,119.31z"/>
		<path class="st0" d="M458.25,121.83c0,0,0.64-1.46,0.13-2.75c-0.51-1.28-1.98-1.9-1.98-1.9s-0.64,1.46-0.13,2.75
			C456.78,121.21,458.25,121.83,458.25,121.83z"/>
		<path class="st0" d="M461.84,111.21c0,0-2.14-0.07-3.48,1.2c-1.34,1.27-1.38,3.41-1.38,3.41s2.13,0.07,3.47-1.2
			C461.8,113.35,461.84,111.21,461.84,111.21z"/>
		<path class="st0" d="M454.73,112.15c0,0-0.79,1.15-0.57,2.34c0.23,1.19,1.38,1.96,1.38,1.96s0.8-1.15,0.57-2.34
			C455.89,112.93,454.73,112.15,454.73,112.15z"/>
		<path class="st0" d="M272.17,59.09c1.07-1.83,0.43-4.19,0.43-4.19s-2.37,0.61-3.45,2.43c-1.07,1.83-0.43,4.19-0.43,4.19
			S271.1,60.92,272.17,59.09z"/>
		<path class="st0" d="M268.31,63.58c0,0,1.44,1.19,3.05,1.03c1.61-0.17,2.78-1.62,2.78-1.62s-1.44-1.19-3.05-1.02
			C269.48,62.12,268.31,63.58,268.31,63.58z"/>
		<path class="st0" d="M266.96,62.49c0,0,0.77-2.38-0.23-4.3c-1-1.92-3.39-2.66-3.39-2.66s-0.77,2.39,0.24,4.3
			C264.57,61.75,266.96,62.49,266.96,62.49z"/>
		<path class="st0" d="M264.55,65.23c1.41,0.13,2.66-0.93,2.66-0.93s-1.04-1.27-2.45-1.39c-1.41-0.13-2.66,0.93-2.66,0.93
			S263.14,65.1,264.55,65.23z"/>
		<path class="st0" d="M424.59,268.82c1.39,0.71,3.11,0.15,3.11,0.15s-0.54-1.72-1.93-2.44c-1.39-0.71-3.11-0.15-3.11-0.15
			S423.2,268.11,424.59,268.82z"/>
		<path class="st0" d="M421.12,266.16c0,0-0.82,1.11-0.63,2.29c0.19,1.18,1.31,1.98,1.31,1.98s0.82-1.11,0.63-2.29
			C422.24,266.96,421.12,266.16,421.12,266.16z"/>
		<path class="st0" d="M425.03,264.78c1.38-0.82,1.82-2.61,1.82-2.61s-1.79-0.47-3.16,0.35c-1.38,0.81-1.82,2.61-1.82,2.61
			S423.66,265.59,425.03,264.78z"/>
		<path class="st0" d="M419.76,263.46c-0.04,1.04,0.79,1.92,0.79,1.92s0.89-0.81,0.93-1.86c0.04-1.04-0.79-1.92-0.79-1.92
			S419.79,262.42,419.76,263.46z"/>
		<path class="st0" d="M546.2,231.31c1.76,0.3,3.44-0.9,3.44-0.9s-1.18-1.69-2.94-2c-1.76-0.3-3.43,0.9-3.43,0.9
			S544.44,231,546.2,231.31z"/>
		<path class="st0" d="M545.17,226.54c1.13-1.23,1.03-3.14,1.03-3.14s-1.92,0.07-3.05,1.29c-1.12,1.23-1.03,3.14-1.03,3.14
			S544.05,227.77,545.17,226.54z"/>
		<path class="st0" d="M434.68,150.97c0,0,0.19-2.87-1.46-4.73c-1.65-1.86-4.53-2.01-4.53-2.01s-0.19,2.87,1.46,4.73
			C431.8,150.82,434.68,150.97,434.68,150.97z"/>
		<path class="st0" d="M436.17,141.93c0,0-1.81-0.99-3.52-0.48c-1.71,0.51-2.68,2.33-2.68,2.33s1.81,0.99,3.52,0.48
			C435.21,143.75,436.17,141.93,436.17,141.93z"/>
		<path class="st0" d="M430.45,140.45c0.46-1.6-0.48-3.28-0.48-3.28s-1.69,0.92-2.15,2.51c-0.46,1.6,0.48,3.27,0.48,3.27
			S429.99,142.05,430.45,140.45z"/>
		<path class="st0" d="M303.53,138.3c1.84,0.76,3.96-0.13,3.96-0.13s-0.86-2.13-2.71-2.89c-1.84-0.76-3.96,0.13-3.96,0.13
			S301.69,137.54,303.53,138.3z"/>
		<path class="st0" d="M305.4,131.14c0,0-1.64-0.08-2.7,0.88c-1.05,0.97-1.11,2.61-1.11,2.61s1.64,0.08,2.7-0.88
			C305.35,132.79,305.4,131.14,305.4,131.14z"/>
		<path class="st0" d="M300.11,134.64c0,0,0.89-1.24,0.67-2.55c-0.22-1.31-1.49-2.19-1.49-2.19s-0.89,1.25-0.67,2.56
			C298.85,133.76,300.11,134.64,300.11,134.64z"/>
		<path class="st0" d="M356.71,90.02c1.56-1.43,1.64-3.87,1.64-3.87s-2.44-0.12-3.99,1.31c-1.56,1.43-1.64,3.86-1.64,3.86
			S355.15,91.45,356.71,90.02z"/>
		<path class="st0" d="M349.31,84.31c0,0-1.32,1.85-0.99,3.78c0.34,1.94,2.2,3.23,2.2,3.23s1.32-1.84,0.99-3.78
			C351.17,85.61,349.31,84.31,349.31,84.31z"/>
		<path class="st0" d="M222.53,145.82c1.13,0.75,2.67,0.43,2.67,0.43s-0.3-1.54-1.43-2.3c-1.13-0.75-2.67-0.44-2.67-0.44
			S221.4,145.06,222.53,145.82z"/>
		<path class="st0" d="M223.65,142.87c0.83-0.51,1.09-1.6,1.09-1.6s-1.09-0.27-1.92,0.23c-0.83,0.51-1.09,1.6-1.09,1.6
			S222.81,143.38,223.65,142.87z"/>
		<path class="st0" d="M220.02,141.24c-0.02,0.91,0.71,1.66,0.71,1.66s0.77-0.72,0.79-1.62c0.02-0.91-0.71-1.66-0.71-1.66
			S220.04,140.34,220.02,141.24z"/>
		<path class="st0" d="M142.47,124.71c1.89-0.37,3.12-2.24,3.12-2.24s-1.84-1.25-3.74-0.88c-1.89,0.37-3.12,2.24-3.12,2.24
			S140.58,125.08,142.47,124.71z"/>
		<path class="st0" d="M140.64,120.63c0.33-1.35-0.51-2.71-0.51-2.71s-1.37,0.82-1.7,2.16c-0.33,1.35,0.51,2.71,0.51,2.71
			S140.31,121.97,140.64,120.63z"/>
		<path class="st0" d="M134.53,120.2c0,0-0.05,1.49,0.84,2.42c0.89,0.94,2.37,0.96,2.37,0.96s0.05-1.49-0.83-2.42
			C136.02,120.23,134.53,120.2,134.53,120.2z"/>
		<path class="st0" d="M193.21,179.43c1.8-0.7,2.68-2.75,2.68-2.75s-2.04-0.91-3.84-0.2c-1.8,0.7-2.68,2.75-2.68,2.75
			S191.42,180.13,193.21,179.43z"/>
		<path class="st0" d="M188.42,175.59c-0.09,1.38,0.98,2.57,0.98,2.57s1.21-1.05,1.29-2.43c0.09-1.38-0.98-2.57-0.98-2.57
			S188.5,174.21,188.42,175.59z"/>
		<path class="st0" d="M184.6,176.4c0,0,0.21,1.47,1.25,2.24c1.04,0.76,2.51,0.53,2.51,0.53s-0.21-1.47-1.25-2.24
			C186.07,176.17,184.6,176.4,184.6,176.4z"/>
		<path class="st0" d="M99.59,217.07c0.85-2.69-0.67-5.57-0.67-5.57s-2.9,1.48-3.76,4.17c-0.85,2.69,0.67,5.57,0.67,5.57
			S98.74,219.76,99.59,217.07z"/>
		<path class="st0" d="M89.25,215.29c0,0,0.08,2.33,1.57,3.7c1.49,1.37,3.82,1.25,3.82,1.25s-0.08-2.33-1.57-3.7
			C91.58,215.17,89.25,215.29,89.25,215.29z"/>
		<path class="st0" d="M91.14,221.71c-1.82,0.48-2.91,2.37-2.91,2.37s1.87,1.11,3.69,0.64c1.82-0.48,2.9-2.36,2.9-2.36
			S92.96,221.23,91.14,221.71z"/>
		<path class="st0" d="M101.71,102.38c2.26-3.06,1.59-7.41,1.59-7.41s-4.36,0.62-6.63,3.68c-2.27,3.06-1.59,7.41-1.59,7.41
			S99.44,105.44,101.71,102.38z"/>
		<path class="st0" d="M94,104.26c0,0,0.92-3.02-0.38-5.42c-1.3-2.4-4.34-3.27-4.34-3.27s-0.92,3.02,0.39,5.42
			C90.97,103.39,94,104.26,94,104.26z"/>
		<path class="st0" d="M88.56,108.78c2.54,0.18,4.75-1.75,4.75-1.75s-1.89-2.24-4.43-2.43c-2.54-0.19-4.75,1.75-4.75,1.75
			S86.03,108.58,88.56,108.78z"/>
		<path class="st0" d="M246.59,45.39c-1.65,3.51-0.1,7.71-0.1,7.71s4.22-1.49,5.87-5c1.65-3.51,0.1-7.71,0.1-7.71
			S248.24,41.88,246.59,45.39z"/>
		<path class="st0" d="M245.05,51.53c0,0,0.31-3.19-1.47-5.33c-1.78-2.13-4.98-2.39-4.98-2.39s-0.31,3.19,1.47,5.32
			C241.85,51.27,245.05,51.53,245.05,51.53z"/>
		<path class="st0" d="M240.53,57.12c2.57-0.33,4.38-2.69,4.38-2.69s-2.34-1.85-4.91-1.54c-2.57,0.32-4.39,2.69-4.39,2.69
			S237.96,57.43,240.53,57.12z"/>
		<path class="st0" d="M501.67,267.73c-0.29,2.2,1.29,4.23,1.29,4.23s2.05-1.55,2.33-3.75c0.29-2.2-1.29-4.23-1.29-4.23
			S501.95,265.52,501.67,267.73z"/>
		<path class="st0" d="M510.53,267.86c2.81,0.94,5.86-0.61,5.86-0.61s-1.51-3.07-4.32-4.01c-2.81-0.94-5.86,0.61-5.86,0.61
			S507.72,266.91,510.53,267.86z"/>
		<path class="st0" d="M508.84,258.21c0,0-2.32-1.1-4.4-0.33c-2.09,0.76-3.15,3.09-3.15,3.09s2.32,1.1,4.4,0.34
			C507.77,260.55,508.84,258.21,508.84,258.21z"/>
		<path class="st0" d="M443.95,99.6c-0.29,2.2,1.29,4.22,1.29,4.22s2.04-1.55,2.33-3.75c0.29-2.2-1.29-4.23-1.29-4.23
			S444.24,97.4,443.95,99.6z"/>
		<path class="st0" d="M452.82,99.73c2.81,0.94,5.86-0.61,5.86-0.61s-1.5-3.07-4.32-4.01c-2.81-0.94-5.86,0.61-5.86,0.61
			S450.01,98.79,452.82,99.73z"/>
		<path class="st0" d="M447.97,93.19c2.09-0.76,3.15-3.1,3.15-3.1s-2.32-1.1-4.4-0.33c-2.09,0.76-3.15,3.09-3.15,3.09
			S445.89,93.95,447.97,93.19z"/>
		<path class="st0" d="M320.59,149.63c0,0-0.77,0.94-0.66,1.99c0.11,1.05,1.07,1.81,1.07,1.81s0.77-0.94,0.66-1.99
			C321.54,150.39,320.59,149.63,320.59,149.63z"/>
		<path class="st0" d="M324.04,150.69c1.4,0.12,2.64-0.94,2.64-0.94s-1.04-1.25-2.44-1.37c-1.4-0.12-2.63,0.94-2.63,0.94
			S322.64,150.57,324.04,150.69z"/>
		<path class="st0" d="M320.11,146.77c-0.88,0.59-1.11,1.78-1.11,1.78s1.19,0.25,2.07-0.34c0.88-0.59,1.11-1.78,1.11-1.78
			S320.99,146.18,320.11,146.77z"/>
		<path class="st0" d="M259.95,178.19c1.05,0.1,1.98-0.68,1.98-0.68s-0.77-0.95-1.82-1.05c-1.05-0.1-1.99,0.68-1.99,0.68
			S258.89,178.09,259.95,178.19z"/>
		<path class="st0" d="M259.48,171.21c0,0-1.43,0.76-1.83,2.11c-0.4,1.35,0.38,2.77,0.38,2.77s1.43-0.76,1.83-2.11
			C260.27,172.63,259.48,171.21,259.48,171.21z"/>
		<path class="st0" d="M255.32,174.94c0,0-0.48,1.12-0.09,2.09c0.4,0.98,1.52,1.45,1.52,1.45s0.48-1.12,0.09-2.1
			C256.44,175.4,255.32,174.94,255.32,174.94z"/>
		<path class="st0" d="M186.38,166.58c-1.71-0.51-3.51,0.48-3.51,0.48s0.97,1.82,2.67,2.33c1.71,0.51,3.51-0.48,3.51-0.48
			S188.09,167.09,186.38,166.58z"/>
		<path class="st0" d="M183.78,161.68c-1.45,1.88-1.07,4.6-1.07,4.6s2.72-0.33,4.17-2.21c1.45-1.88,1.08-4.6,1.08-4.6
			S185.23,159.8,183.78,161.68z"/>
		<path class="st0" d="M181.27,167.15c0,0,1.17-1.69,0.83-3.44c-0.34-1.75-2.05-2.89-2.05-2.89s-1.16,1.7-0.83,3.44
			C179.56,166.01,181.27,167.15,181.27,167.15z"/>
		<path class="st0" d="M187.74,69.34c-0.3,1.72,0.87,3.35,0.87,3.35s1.65-1.15,1.95-2.86c0.3-1.72-0.87-3.35-0.87-3.35
			S188.04,67.63,187.74,69.34z"/>
		<path class="st0" d="M183.28,72.43c1.99,1.19,4.59,0.52,4.59,0.52s-0.64-2.6-2.63-3.8c-2-1.19-4.59-0.52-4.59-0.52
			S181.29,71.24,183.28,72.43z"/>
		<path class="st0" d="M182.88,76.15c0,0,1.78,0.94,3.44,0.41c1.66-0.53,2.57-2.32,2.57-2.32s-1.78-0.94-3.44-0.41
			C183.79,74.36,182.88,76.15,182.88,76.15z"/>
		<path class="st0" d="M176.21,132.65c1.16-0.69,1.52-2.21,1.52-2.21s-1.51-0.39-2.66,0.31c-1.16,0.69-1.53,2.21-1.53,2.21
			S175.05,133.35,176.21,132.65z"/>
		<path class="st0" d="M171.89,126.23c0,0-1.2,1.69-0.89,3.47c0.31,1.77,2.02,2.95,2.02,2.95s1.2-1.69,0.89-3.46
			C173.6,127.41,171.89,126.23,171.89,126.23z"/>
		<path class="st0" d="M170.12,133.57c1.15,0.71,2.66,0.33,2.66,0.33s-0.35-1.52-1.5-2.22c-1.15-0.71-2.66-0.33-2.66-0.33
			S168.97,132.86,170.12,133.57z"/>
		<path class="st0" d="M65.73,219.08c0.38-2.19-1.11-4.28-1.11-4.28s-2.11,1.46-2.49,3.65c-0.38,2.19,1.11,4.28,1.11,4.28
			S65.35,221.27,65.73,219.08z"/>
		<path class="st0" d="M53.08,217.56c0,0,0.81,3.32,3.35,4.84c2.54,1.52,5.85,0.66,5.85,0.66s-0.81-3.32-3.35-4.84
			C56.4,216.7,53.08,217.56,53.08,217.56z"/>
		<path class="st0" d="M59.2,224.18c-2.12,0.67-3.28,2.96-3.28,2.96s2.27,1.19,4.39,0.52c2.12-0.67,3.28-2.96,3.28-2.96
			S61.32,223.51,59.2,224.18z"/>
		<path class="st0" d="M38.82,283.61c0,0-1.08,3.12,0.18,5.68c1.26,2.56,4.4,3.61,4.4,3.61s1.09-3.12-0.18-5.69
			C41.95,284.65,38.82,283.61,38.82,283.61z"/>
		<path class="st0" d="M35.51,291.47c-3.8,0.35-6.59,3.76-6.59,3.76s3.37,2.84,7.16,2.49c3.8-0.35,6.59-3.76,6.59-3.76
			S39.3,291.12,35.51,291.47z"/>
		<path class="st0" d="M40.3,297.47c-1.69,2.31-1.16,5.57-1.16,5.57s3.27-0.48,4.96-2.79c1.69-2.31,1.16-5.56,1.16-5.56
			S41.99,295.16,40.3,297.47z"/>
		<path class="st0" d="M17.76,165.83c0,0,0.23,3.1,2.28,4.85c2.05,1.75,5.15,1.48,5.15,1.48s-0.23-3.1-2.28-4.85
			C20.86,165.55,17.76,165.83,17.76,165.83z"/>
		<path class="st0" d="M20.65,179.04c3.15-1.72,4.29-5.71,4.29-5.71s-3.97-1.2-7.12,0.52c-3.16,1.72-4.3,5.71-4.3,5.71
			S17.5,180.76,20.65,179.04z"/>
		<path class="st0" d="M24.21,177.25c-0.6,2.63,1.07,5.25,1.07,5.25s2.64-1.64,3.24-4.26c0.6-2.62-1.07-5.24-1.07-5.24
			S24.81,174.63,24.21,177.25z"/>
		<path class="st0" d="M69.2,123.16c1-1.74,0.38-3.98,0.38-3.98s-2.25,0.59-3.25,2.33c-1,1.74-0.38,3.98-0.38,3.98
			S68.19,124.9,69.2,123.16z"/>
		<path class="st0" d="M65.04,125.47c0,0,0.34-3.08-1.35-5.16c-1.69-2.08-4.78-2.38-4.78-2.38s-0.34,3.08,1.35,5.16
			C61.95,125.18,65.04,125.47,65.04,125.47z"/>
		<path class="st0" d="M61.92,128.78c2.01,0.08,3.71-1.5,3.71-1.5s-1.56-1.72-3.57-1.8c-2.01-0.08-3.71,1.5-3.71,1.5
			S59.91,128.69,61.92,128.78z"/>
		<path class="st0" d="M430.18,257.66c-1.21-1.87-3.72-2.39-3.72-2.39s-0.56,2.51,0.65,4.37c1.21,1.87,3.72,2.39,3.72,2.39
			S431.39,259.52,430.18,257.66z"/>
		<path class="st0" d="M432.69,255.67c2.9-0.61,4.74-3.49,4.74-3.49s-2.85-1.89-5.75-1.28c-2.9,0.61-4.74,3.49-4.74,3.49
			S429.79,256.28,432.69,255.67z"/>
		<path class="st0" d="M428.44,251.47c1.1-1.93,0.4-4.4,0.4-4.4s-2.48,0.67-3.57,2.6c-1.1,1.93-0.4,4.4-0.4,4.4
			S427.35,253.4,428.44,251.47z"/>
		<path class="st0" d="M511.13,250.74c0,0,0.56-2.5-0.65-4.37c-1.2-1.86-3.72-2.39-3.72-2.39s-0.56,2.5,0.65,4.37
			C508.62,250.22,511.13,250.74,511.13,250.74z"/>
		<path class="st0" d="M517.73,240.89c0,0-2.85-1.89-5.75-1.28c-2.9,0.61-4.74,3.49-4.74,3.49s2.85,1.89,5.75,1.28
			C515.88,243.77,517.73,240.89,517.73,240.89z"/>
		<path class="st0" d="M508.74,240.18c1.1-1.93,0.4-4.4,0.4-4.4s-2.48,0.67-3.57,2.6c-1.1,1.93-0.4,4.4-0.4,4.4
			S507.65,242.11,508.74,240.18z"/>
		<path class="st0" d="M523.07,185.01c0,0-0.56,2.5,0.65,4.37c1.21,1.87,3.72,2.39,3.72,2.39s0.56-2.51-0.65-4.37
			C525.58,185.53,523.07,185.01,523.07,185.01z"/>
		<path class="st0" d="M523.55,184.13c0,0,2.85,1.89,5.75,1.28c2.9-0.61,4.74-3.49,4.74-3.49s-2.85-1.89-5.75-1.28
			C525.39,181.25,523.55,184.13,523.55,184.13z"/>
		<path class="st0" d="M525.05,181.21c1.1-1.93,0.4-4.4,0.4-4.4s-2.48,0.67-3.57,2.6c-1.1,1.93-0.4,4.4-0.4,4.4
			S523.96,183.14,525.05,181.21z"/>
		<path class="st0" d="M494.24,155.34c0,0,0.75-2.45-0.31-4.41c-1.06-1.95-3.52-2.67-3.52-2.67s-0.75,2.46,0.31,4.41
			C491.78,154.63,494.24,155.34,494.24,155.34z"/>
		<path class="st0" d="M495.95,144.32c-2.94,0.39-5,3.12-5,3.12s2.7,2.1,5.63,1.72c2.94-0.39,5-3.12,5-3.12
			S498.89,143.93,495.95,144.32z"/>
		<path class="st0" d="M492.68,144.63c1.24-1.84,0.73-4.36,0.73-4.36s-2.52,0.47-3.76,2.31c-1.24,1.84-0.73,4.35-0.73,4.35
			S491.43,146.47,492.68,144.63z"/>
		<path class="st0" d="M403.52,104.15c0,0-0.41,1.33,0.17,2.39c0.57,1.06,1.91,1.44,1.91,1.44s0.4-1.33-0.17-2.39
			C404.86,104.53,403.52,104.15,403.52,104.15z"/>
		<path class="st0" d="M403.82,103.69c0,0,1.46,1.14,3.05,0.93c1.59-0.21,2.71-1.69,2.71-1.69s-1.46-1.14-3.05-0.93
			S403.82,103.69,403.82,103.69z"/>
		<path class="st0" d="M404.75,102.18c0.67-1,0.4-2.36,0.4-2.36s-1.36,0.26-2.04,1.25c-0.67,1-0.4,2.36-0.4,2.36
			S404.08,103.17,404.75,102.18z"/>
		<path class="st0" d="M320.94,145.32c0,0-0.26-1.37-1.26-2.03c-1-0.67-2.36-0.39-2.36-0.39s0.26,1.37,1.26,2.04
			C319.58,145.6,320.94,145.32,320.94,145.32z"/>
		<path class="st0" d="M318.98,139.6c-1.31,0.93-1.61,2.75-1.61,2.75s1.82,0.33,3.14-0.6c1.31-0.93,1.61-2.75,1.61-2.75
			S320.29,138.68,318.98,139.6z"/>
		<path class="st0" d="M315.52,140.36c-0.13,1.2,0.75,2.27,0.75,2.27s1.09-0.86,1.22-2.06c0.13-1.2-0.75-2.28-0.75-2.28
			S315.65,139.17,315.52,140.36z"/>
		<path class="st0" d="M440.7,89.6c0.83-2.16-0.28-4.59-0.28-4.59s-2.45,1.07-3.27,3.23c-0.82,2.16,0.28,4.59,0.28,4.59
			S439.88,91.76,440.7,89.6z"/>
		<path class="st0" d="M433.31,93.1c0,0,1.78-1.99,1.64-4.29c-0.14-2.31-2.16-4.06-2.16-4.06s-1.78,1.99-1.64,4.3
			C431.29,91.34,433.31,93.1,433.31,93.1z"/>
		<path class="st0" d="M428.93,94.95c0,0,0.94-2.5-0.03-4.6c-0.97-2.1-3.48-3-3.48-3s-0.94,2.5,0.03,4.6
			C426.42,94.05,428.93,94.95,428.93,94.95z"/>
		<path class="st0" d="M79.21,201.18c0.12-2.17-1.56-4.03-1.56-4.03s-1.88,1.66-2.01,3.82c-0.13,2.17,1.56,4.03,1.56,4.03
			S79.09,203.35,79.21,201.18z"/>
		<path class="st0" d="M84.11,203.07c0,0,1.03-2.29,0.25-4.32c-0.79-2.03-3.09-3.02-3.09-3.02s-1.03,2.29-0.25,4.31
			C81.81,202.07,84.11,203.07,84.11,203.07z"/>
		<path class="st0" d="M84.66,192.83c0,0-0.13,2.5,1.33,4.11c1.47,1.6,3.97,1.7,3.97,1.7s0.13-2.51-1.33-4.11
			C87.17,192.92,84.66,192.83,84.66,192.83z"/>
		<path class="st0" d="M55.89,130.19c0,0-2.51,0.03-4.02,1.6c-1.51,1.57-1.44,4.07-1.44,4.07s2.51-0.03,4.01-1.59
			C55.96,132.7,55.89,130.19,55.89,130.19z"/>
		<path class="st0" d="M49.76,131.47c0.72-2.05-0.37-4.31-0.37-4.31s-2.27,1.06-3,3.11c-0.72,2.05,0.38,4.3,0.38,4.3
			S49.04,133.51,49.76,131.47z"/>
		<path class="st0" d="M42.3,134.57c0,0,1.73-1.81,1.66-3.98c-0.07-2.17-1.91-3.88-1.91-3.88s-1.73,1.82-1.66,3.99
			C40.46,132.87,42.3,134.57,42.3,134.57z"/>
		<path class="st0" d="M62.39,287.48c1.22-1.8,0.73-4.26,0.73-4.26s-2.47,0.45-3.69,2.25c-1.22,1.8-0.73,4.26-0.73,4.26
			S61.17,289.28,62.39,287.48z"/>
		<path class="st0" d="M57.3,285.51c0.37-2.14-1.09-4.18-1.09-4.18s-2.06,1.43-2.43,3.58c-0.37,2.14,1.1,4.18,1.1,4.18
			S56.93,287.65,57.3,285.51z"/>
		<path class="st0" d="M50.47,289.83c0,0,1.4-2.08,0.97-4.21c-0.43-2.13-2.54-3.5-2.54-3.5s-1.4,2.08-0.97,4.21
			C48.37,288.47,50.47,289.83,50.47,289.83z"/>
		<path class="st0" d="M385.14,169.27c-1.87,1.1-2.49,3.53-2.49,3.53s2.42,0.65,4.3-0.45c1.87-1.1,2.48-3.53,2.48-3.53
			S387.01,168.17,385.14,169.27z"/>
		<path class="st0" d="M391.82,175.28c1.25-1.78,0.8-4.24,0.8-4.24s-2.47,0.41-3.72,2.19c-1.25,1.78-0.8,4.25-0.8,4.25
			S390.57,177.06,391.82,175.28z"/>
		<path class="st0" d="M394.25,175.64c-0.52,2.11,0.79,4.25,0.79,4.25s2.16-1.28,2.68-3.39c0.52-2.11-0.79-4.25-0.79-4.25
			S394.77,173.53,394.25,175.64z"/>
		<path class="st0" d="M492.57,130.69c0,0,0.05-3.54-2.11-5.73c-2.15-2.18-5.7-2.18-5.7-2.18s-0.05,3.54,2.11,5.73
			C489.02,130.69,492.57,130.69,492.57,130.69z"/>
		<path class="st0" d="M481.64,127.89c0,0-1.36,3.27-0.16,6.1c1.19,2.83,4.49,4.14,4.49,4.14s1.36-3.28,0.16-6.11
			C484.94,129.19,481.64,127.89,481.64,127.89z"/>
		<path class="st0" d="M489.51,120.97c2.04,0.78,4.34-0.27,4.34-0.27s-1.01-2.31-3.05-3.09c-2.04-0.78-4.33,0.27-4.33,0.27
			S487.47,120.19,489.51,120.97z"/>
		<path class="st0" d="M496.91,113.02c0,0-2.18-2.18-4.85-2.17c-2.67,0.02-4.82,2.22-4.82,2.22s2.17,2.18,4.84,2.17
			C494.76,115.22,496.91,113.02,496.91,113.02z"/>
		<path class="st0" d="M157.78,82.61c0,0-1.42,2.73-0.6,5.27c0.82,2.54,3.58,3.93,3.58,3.93s1.42-2.73,0.6-5.28
			C160.54,83.99,157.78,82.61,157.78,82.61z"/>
		<path class="st0" d="M150.86,90.03c-0.18,2.66,1.87,4.97,1.87,4.97s2.34-2.01,2.51-4.68c0.18-2.66-1.87-4.97-1.87-4.97
			S151.04,87.37,150.86,90.03z"/>
		<path class="st0" d="M165.66,84.55c0,0,0.12-2.19-1.16-3.6c-1.28-1.4-3.47-1.49-3.47-1.49s-0.12,2.19,1.16,3.59
			C163.47,84.46,165.66,84.55,165.66,84.55z"/>
		<path class="st0" d="M166.43,79.62c2.08,1.03,4.62,0.16,4.62,0.16s-0.84-2.54-2.92-3.58c-2.08-1.03-4.61-0.16-4.61-0.16
			S164.35,78.59,166.43,79.62z"/>
		<path class="st0" d="M315.19,50.58c0,0,3.02-0.61,4.48-2.84c1.46-2.23,0.81-5.25,0.81-5.25s-3.02,0.61-4.48,2.85
			C314.53,47.57,315.19,50.58,315.19,50.58z"/>
		<path class="st0" d="M325.31,51.3c2.19-1.53,2.7-4.58,2.7-4.58s-3.03-0.55-5.22,0.99c-2.18,1.53-2.69,4.57-2.69,4.57
			S323.13,52.83,325.31,51.3z"/>
		<path class="st0" d="M309.68,46.4c-0.29,1.88,1.03,3.63,1.03,3.63s1.78-1.29,2.06-3.16c0.29-1.88-1.02-3.63-1.02-3.63
			S309.97,44.52,309.68,46.4z"/>
		<path class="st0" d="M304.65,42.04c0,0-1.45,2.25-0.95,4.52c0.51,2.27,2.78,3.69,2.78,3.69s1.46-2.25,0.95-4.52
			C306.93,43.46,304.65,42.04,304.65,42.04z"/>
		<path class="st0" d="M222.99,61.19c1.93-1.84,1.98-4.93,1.98-4.93s-3.08-0.1-5.01,1.75c-1.93,1.84-1.98,4.92-1.98,4.92
			S221.05,63.03,222.99,61.19z"/>
		<path class="st0" d="M222.37,65.71c0,0,2.83,1.23,5.3,0.23c2.48-0.99,3.67-3.84,3.67-3.84s-2.83-1.23-5.31-0.23
			C223.55,62.87,222.37,65.71,222.37,65.71z"/>
		<path class="st0" d="M216.47,58.77c0.71-1.76-0.17-3.77-0.17-3.77s-2.03,0.84-2.73,2.61c-0.71,1.76,0.17,3.77,0.17,3.77
			S215.76,60.53,216.47,58.77z"/>
		<path class="st0" d="M211.53,56.44c0.03-2.32-1.86-4.23-1.86-4.23s-1.93,1.86-1.96,4.18c-0.02,2.32,1.86,4.22,1.86,4.22
			S211.5,58.77,211.53,56.44z"/>
		<path class="st0" d="M103.18,266.43c0.82-2.01-0.18-4.32-0.18-4.32s-2.32,0.96-3.13,2.97c-0.82,2.01,0.18,4.32,0.18,4.32
			S102.37,268.45,103.18,266.43z"/>
		<path class="st0" d="M108.83,265.8c-0.09-2.17-1.95-3.86-1.95-3.86s-1.71,1.83-1.62,4c0.09,2.17,1.95,3.86,1.95,3.86
			S108.92,267.97,108.83,265.8z"/>
		<path class="st0" d="M114.19,267.49c0,0,0.93-2.33,0.06-4.32c-0.87-1.99-3.21-2.89-3.21-2.89s-0.93,2.33-0.06,4.32
			C111.84,266.59,114.19,267.49,114.19,267.49z"/>
		<path class="st0" d="M513.88,184.5c1.98-2.2,1.78-5.62,1.78-5.62s-3.42,0.16-5.4,2.36c-1.98,2.2-1.77,5.62-1.77,5.62
			S511.9,186.7,513.88,184.5z"/>
		<path class="st0" d="M501.84,189.48c0,0,2.52-2.31,2.62-5.27c0.1-2.96-2.25-5.45-2.25-5.45s-2.52,2.31-2.62,5.28
			C499.49,187,501.84,189.48,501.84,189.48z"/>
		<path class="st0" d="M546.43,193.35c2.07-2.12,2-5.54,2-5.54s-3.42,0.02-5.49,2.15c-2.07,2.12-1.99,5.54-1.99,5.54
			S544.37,195.47,546.43,193.35z"/>
		<path class="st0" d="M546.92,196.24c0,0,2.75,2.04,5.67,1.58c2.93-0.46,4.93-3.23,4.93-3.23s-2.75-2.04-5.67-1.58
			C548.92,193.46,546.92,196.24,546.92,196.24z"/>
		<path class="st0" d="M552.93,204.64c0,0-0.66-3.36-3.14-4.99c-2.47-1.63-5.82-0.92-5.82-0.92s0.66,3.35,3.13,4.99
			C549.58,205.35,552.93,204.64,552.93,204.64z"/>
		<path class="st0" d="M537.07,206.23c2.47,1.63,5.82,0.92,5.82,0.92s-0.66-3.36-3.13-4.99c-2.47-1.63-5.82-0.92-5.82-0.92
			S534.6,204.6,537.07,206.23z"/>
		<path class="st0" d="M530.98,209.69c-2.47-1.63-5.82-0.92-5.82-0.92s0.66,3.35,3.13,4.99c2.47,1.63,5.82,0.92,5.82,0.92
			S533.45,211.32,530.98,209.69z"/>
		<path class="st0" d="M420.81,164.35c1.63,1.08,3.84,0.61,3.84,0.61s-0.44-2.22-2.07-3.29c-1.63-1.08-3.84-0.61-3.84-0.61
			S419.18,163.27,420.81,164.35z"/>
		<path class="st0" d="M421.96,159.77c1.55-0.69,2.23-2.53,2.23-2.53s-1.82-0.71-3.37-0.02c-1.55,0.69-2.24,2.53-2.24,2.53
			S420.41,160.47,421.96,159.77z"/>
		<path class="st0" d="M389.97,103.41c1.83-0.68,2.76-2.74,2.76-2.74s-2.04-0.96-3.88-0.27c-1.83,0.68-2.76,2.74-2.76,2.74
			S388.14,104.09,389.97,103.41z"/>
		<path class="st0" d="M386.96,99.78c0.35-1.66-0.72-3.29-0.72-3.29s-1.65,1.05-2.01,2.71c-0.36,1.66,0.72,3.3,0.72,3.3
			S386.6,101.43,386.96,99.78z"/>
		<path class="st0" d="M271.31,134.32c-0.36,1.66,0.72,3.3,0.72,3.3s1.65-1.05,2.01-2.71c0.35-1.66-0.72-3.3-0.72-3.3
			S271.67,132.66,271.31,134.32z"/>
		<path class="st0" d="M302.15,173.67c1.84-0.68,2.76-2.74,2.76-2.74s-2.05-0.96-3.88-0.27c-1.83,0.68-2.76,2.74-2.76,2.74
			S300.32,174.35,302.15,173.67z"/>
		<path class="st0" d="M298.41,166.74c0,0-1.65,1.05-2.01,2.71c-0.36,1.66,0.72,3.3,0.72,3.3s1.65-1.05,2.01-2.71
			C299.49,168.38,298.41,166.74,298.41,166.74z"/>
		<path class="st0" d="M188.45,92.19c0.61-2.42-0.87-4.88-0.87-4.88s-2.49,1.45-3.1,3.87c-0.62,2.41,0.87,4.88,0.87,4.88
			S187.83,94.61,188.45,92.19z"/>
		<path class="st0" d="M182.45,92.72c-1.48-1.57-3.98-1.64-3.98-1.64s-0.09,2.49,1.38,4.07c1.48,1.58,3.98,1.64,3.98,1.64
			S183.94,94.3,182.45,92.72z"/>
		<path class="st0" d="M266.5,20.82c0,0,3.06,1.06,5.59-0.18c2.52-1.24,3.54-4.33,3.54-4.33s-3.07-1.06-5.59,0.18
			C267.52,17.73,266.5,20.82,266.5,20.82z"/>
		<path class="st0" d="M267.61,15.17c1.78-2.18,1.44-5.41,1.44-5.41s-3.23,0.3-5.02,2.48c-1.78,2.18-1.43,5.4-1.43,5.4
			S265.83,17.35,267.61,15.17z"/>
		<path class="st0" d="M260.93,11.56c0.87-2.67-0.62-5.56-0.62-5.56s-2.9,1.45-3.77,4.13c-0.87,2.68,0.62,5.56,0.62,5.56
			S260.06,14.23,260.93,11.56z"/>
		<path class="st0" d="M246.07,14.1c2.89,2,6.88,1.24,6.88,1.24s-0.7-4-3.59-6c-2.89-2-6.88-1.24-6.88-1.24S243.17,12.1,246.07,14.1
			z"/>
		<path class="st0" d="M248.65,20.25c-2.04,1-2.87,3.48-2.87,3.48s2.47,0.87,4.51-0.13c2.04-1,2.87-3.48,2.87-3.48
			S250.69,19.26,248.65,20.25z"/>
		<path class="st0" d="M492.03,170.87c0,0-1.1,2.11-0.46,4.07c0.63,1.96,2.76,3.03,2.76,3.03s1.1-2.11,0.46-4.07
			C494.16,171.94,492.03,170.87,492.03,170.87z"/>
		<path class="st0" d="M497.86,171.27c0,0-0.84-1.28-2.14-1.54c-1.3-0.26-2.57,0.6-2.57,0.6s0.84,1.28,2.14,1.55
			C496.59,172.13,497.86,171.27,497.86,171.27z"/>
		<path class="st0" d="M496.1,100.86c2.5-2.78,2.24-7.1,2.24-7.1s-4.31,0.2-6.82,2.98c-2.5,2.78-2.24,7.09-2.24,7.09
			S493.6,103.65,496.1,100.86z"/>
		<path class="st0" d="M487.41,102.59c0,0,1.25-2.49,0.48-4.77c-0.78-2.29-3.29-3.5-3.29-3.5s-1.25,2.49-0.47,4.78
			C484.91,101.38,487.41,102.59,487.41,102.59z"/>
		<path class="st0" d="M370.59,93.24c2.64-1.14,3.85-4.23,3.85-4.23s-3.08-1.25-5.72-0.11c-2.64,1.14-3.85,4.23-3.85,4.23
			S367.95,94.38,370.59,93.24z"/>
		<path class="st0" d="M365.84,88.47c0.19-1.84-1.17-3.5-1.17-3.5s-1.67,1.34-1.87,3.18c-0.19,1.84,1.17,3.5,1.17,3.5
			S365.65,90.32,365.84,88.47z"/>
		<path class="st0" d="M311.35,81.75c1.77-1.19,2.22-3.61,2.22-3.61s-2.4-0.49-4.17,0.7c-1.77,1.19-2.22,3.6-2.22,3.6
			S309.59,82.94,311.35,81.75z"/>
		<path class="st0" d="M305.92,76.56c0,0-1.03,1.2-0.92,2.57c0.11,1.37,1.33,2.38,1.33,2.38s1.03-1.2,0.92-2.57
			C307.14,77.57,305.92,76.56,305.92,76.56z"/>
		<path class="st0" d="M283,105.46c0,0,1.7-1.77,1.65-3.9c-0.05-2.13-1.85-3.8-1.85-3.8s-1.7,1.77-1.65,3.9
			C281.21,103.79,283,105.46,283,105.46z"/>
		<path class="st0" d="M280.07,103.52c-1.21-0.64-2.73-0.16-2.73-0.16s0.46,1.52,1.67,2.16c1.21,0.64,2.72,0.16,2.72,0.16
			S281.28,104.16,280.07,103.52z"/>
		<path class="st0" d="M260.38,138.08c2.14-0.33,3.6-2.37,3.6-2.37s-2.01-1.49-4.15-1.15c-2.14,0.33-3.6,2.37-3.6,2.37
			S258.24,138.42,260.38,138.08z"/>
		<path class="st0" d="M257.81,133.72c0.49-1.31-0.2-2.77-0.2-2.77s-1.47,0.66-1.96,1.97c-0.49,1.31,0.2,2.77,0.2,2.77
			S257.33,135.02,257.81,133.72z"/>
		<path class="st0" d="M314.24,172.69c1.82-0.28,3.07-2.02,3.07-2.02s-1.71-1.27-3.54-0.98c-1.83,0.29-3.07,2.02-3.07,2.02
			S312.41,172.98,314.24,172.69z"/>
		<path class="st0" d="M312.05,168.97c0.41-1.12-0.17-2.37-0.17-2.37s-1.26,0.57-1.67,1.68c-0.42,1.12,0.17,2.36,0.17,2.36
			S311.63,170.08,312.05,168.97z"/>
		<path class="st0" d="M171.79,107.42c0,0-2.57-2.25-5.53-2.04c-2.95,0.21-5.17,2.82-5.17,2.82s2.57,2.25,5.52,2.04
			C169.58,110.03,171.79,107.42,171.79,107.42z"/>
		<path class="st0" d="M163.61,104.01c0.81-1.73,0.05-3.8,0.05-3.8s-2.08,0.74-2.89,2.47c-0.81,1.73-0.05,3.8-0.05,3.8
			S162.79,105.73,163.61,104.01z"/>
		<path class="st0" d="M173.15,174.25c0,0-1.48-1.3-3.19-1.18c-1.7,0.12-2.99,1.63-2.99,1.63s1.48,1.3,3.19,1.18
			C171.87,175.75,173.15,174.25,173.15,174.25z"/>
		<path class="st0" d="M166.78,171.5c-0.47,1-0.03,2.19-0.03,2.19s1.2-0.42,1.67-1.42c0.47-1,0.03-2.2,0.03-2.2
			S167.25,170.51,166.78,171.5z"/>
		<path class="st0" d="M25.39,221.2c-4.26-2.15-9.18,0.32-9.18,0.32s1.98,5.94,6.24,8.09c4.25,2.15,9.17-0.32,9.17-0.32
			S29.64,223.34,25.39,221.2z"/>
		<path class="st0" d="M25.17,234.16c-2.35,2.2-2.75,6.31-2.75,6.31s3.41,0.53,5.76-1.67c2.35-2.2,2.74-6.29,2.74-6.29
			S27.52,231.97,25.17,234.16z"/>
		<path class="st0" d="M22.9,143.27c2.89-0.62,4.73-3.51,4.73-3.51s-2.86-1.88-5.75-1.25c-2.9,0.62-4.73,3.51-4.73,3.51
			S20,143.9,22.9,143.27z"/>
		<path class="st0" d="M25.72,144.27c-0.56,1.83,0.48,3.77,0.48,3.77s1.96-1.02,2.52-2.84c0.56-1.83-0.48-3.77-0.48-3.77
			S26.29,142.44,25.72,144.27z"/>
		<path class="st0" d="M64.81,177.55c-2.76-1.08-5.88,0.31-5.88,0.31s1.34,3.15,4.1,4.23c2.76,1.08,5.88-0.31,5.88-0.31
			S67.57,178.64,64.81,177.55z"/>
		<path class="st0" d="M68.5,183.51c0,0-2.19-0.24-3.67,0.97c-1.48,1.21-1.68,3.41-1.68,3.41s2.19,0.24,3.67-0.97
			C68.3,185.71,68.5,183.51,68.5,183.51z"/>
		<path class="st0" d="M134.95,203.98l-0.01,0.01C134.96,204.03,134.95,204.01,134.95,203.98z"/>
	</g>
	<path class="st0" d="M542.53,491.36c6.94-1.81,13.11-5.62,19.64-8.44c-1.65,0.59-3.28,1.23-4.91,1.89
		c-6.98,2.72-14.14,6.21-21.85,5.6c-8.54-0.18-16.41-6.96-23.32-11.2c6.66,1.12,12.39,1.09,18.82-1.04
		c6.17-2.04,11.65-3.74,18.16-2.35c-3.69-1.05-7.25-1.33-11.05-0.66c-4.91,0.87-9.75,3.05-14.78,3.11
		c-6.21,0.07-12.23-2.02-18.27-3.25c-16.02-3.27-32.26-4.4-48.33-7.23c-5.44-0.96-10.95-1.27-16.39-2.2
		c-7.42-1.26-14.66-4.27-21.8-6.55c-15.71-5.01-31.57-9.7-47.75-12.93c-9.22-1.84-37.81-5.01-45.44-27.46
		c-4.31-12.68-11.77-16.29-15.19-23.98c-3.23-7.24-1.86-28.05-3.14-36c-0.94-5.81-0.59-11.49-0.73-17.32
		c-0.19-7.58-0.63-17.42,3.59-24.1c2.54-4.01,7.7-7.23,11.32-10.41c3.54-3.11,6.78-6.36,9.95-9.86c2.72-2.77,4.18-6.92,4.77-10.66
		c0.38-2.43,0.43-4.9,0.52-7.36c3.17-1.12,6.71-1.96,10.09-1.85c6.34,0.22,12.31,3.27,18.65,3.89c3.08,0.48,6.23,0.67,9.34,0.81
		c21.53,0.98,42.16,0.13,62.77-6.63c-17.53,4.47-35.11,5.22-53.1,3.42c2.87-2.54,5.18-5.65,7.41-8.74c1.04-1.44,7.9,0.37,9.73,0.52
		c7.44,0.58,13.95-0.82,20.13-5.02c-9.17,5.38-18.13,4.08-28.14,2.13c7.44-10.11,18.91-9.88,30.32-10.86
		c-7.93,0.13-17.77-1.35-24.8,3.21c-5.72,3.7-9.42,9.51-14.22,14.19c-1.31,1.26-2.72,2.46-4.3,3.38c-1.7,0.99-3.27,0.49-5.17,0.27
		c-4.61-0.55-9.22-1.27-13.7-2.5c-4-1.1-7.79-2.9-11.86-3.75c-4.28-0.89-8.71-0.52-12.96,0.41c4.03-4.88,6.02-14.92,12.89-16.87
		c2.53-0.72,5.36-0.58,7.95-0.6c5.13-0.03,10.19-0.46,15.19-1.63c10-2.34,17.82-7.58,25.28-14.46c7.39-6.8,14.25-13.32,24.1-16.29
		c5.06-1.52,10.31-2.17,15.58-2.23c3.48-0.04,10.93-0.86,13.4,1.93c3.02,3.43,4.73,7.88,6.96,11.81c1.81,3.19,4.21,5.67,7.12,7.85
		c0.22,8.9,1.36,17.27,10.89,20.63c7.97,2.86,16.94,1.79,25.14,0.65c-7.07,0.48-14.41,0.84-21.3-1.11c-3.8-1.07-7.67-3.03-9.8-6.5
		c-2.09-3.37-1.91-7.74-1.76-11.54c11.69,7.18,25.1,4.47,37.23,0.05c-10.8,3.14-22.49,5.18-32.92-0.34c-3.1-1.65-6-3.96-8.37-6.55
		c-3.99-4.13-5.26-10.26-8.09-15.16c14.3,2.54,27.97,7.76,42.26,10.28c14.69,2.6,28.96,0.03,43.48-2.37
		c-0.34,0.67-1.19,2.67-0.66,4.63c0.65,2.4,3.15,3.82,3.15,3.82s1.45-2.48,0.8-4.89c-0.65-2.4-3.16-3.82-3.16-3.82
		s-0.06,0.11-0.13,0.25c-12.73,1.23-25.67,2.94-38.36,0.48c-13.44-2.61-26.04-8.36-39.12-12.26c5.81,0.67,11.39-2.26,16.27-5.07
		c1.24-0.71,5.34-4,6.51-3.31c2.24,1.31,4.8,2.04,7.35,2.43c10.5,1.61,21.98-0.68,31.81-4.52c1.02,0.19,2.47,0.27,3.79-0.32
		c2.34-1.05,3.39-3.83,3.39-3.83s-2.76-1.08-5.11-0.03c-2.35,1.05-3.39,3.83-3.39,3.83s0.5,0.19,1.25,0.34
		c-5.53,1.73-11.23,2.75-17.01,3.16c-6.48,0.45-14.09,0.47-19.92-2.84c17.88-8.16,37.65-6.99,56.56-10.85
		c-19.06,2.56-38.93-0.09-57.26,6.89c3.61-4.49,9.32-7.69,14.26-10.51c6.32-3.61,13.05-6.04,20.07-7.84
		c-8.93,1.66-17.26,4.51-25.24,8.9c-3.16,1.74-6.57,3.61-9.36,5.92c-1.31,0.67-2.52,2.57-3.41,3.7c-0.54,0.69-1.08,1.42-1.43,2.23
		c-1.46,0.75-2.93,1.5-4.4,2.23c-8.61,4.27-18.13,5.82-27.72,5.56c-7.79-0.21-15.34-1.74-23.19-1.1
		c-10.46,0.86-19.94,4.49-28.35,10.72c-8.6,6.37-16.2,14.56-27.06,16.85c-4.97,1.05-9.93,1.24-14.98,0.92
		c-3.6-0.23-7.3-0.48-10.88,0.18c-7.38,1.36-13.71,7.01-17.62,13.22c-2.95,4.7-5.2,9.93-7.61,14.91c-2.44,5.03-5.1,10.07-7.11,15.29
		c-1.7-10.34,1.29-21.85,4.71-31.49c1.53-4.32,2.85-8.54,6.45-11.56c3.29-2.76,7.23-4.23,11.25-5.59c4.9-1.65,9.88-3.11,14.49-5.49
		c4.46-2.31,8.15-5.62,11.69-9.14c5.24-5.2,9.41-11.06,14.21-16.62c6.21-7.19,18.04-5.19,26.51-5.29
		c6.43-0.08,12.62-1.25,18.43-4.15c2.95-1.47,5.47-3.55,8.28-5.23c3.97-2.37,7.71-4.81,11.26-7.8c3.78-3.19,7.32-7.35,12.09-9.04
		c0.85-0.3,3.6,0.83,4.67,0.9c2.49,0.15,4.98-0.05,7.46-0.23c9.65-0.71,18.73-2.86,27.93-5.74c-5.64,1.36-11.31,2.79-17.11,3.28
		c-6.35,0.54-14.52,1.91-20.67-0.26c9.79-5.87,21.28-10.48,32.87-9.02c-12-2.33-24.38,1.9-34.92,7.46
		c1.1-7.79,9.47-12.79,15.91-15.84c5.94-2.81,12.47-4.98,19.01-5.81c-11.6,0.69-26.45,4.96-34.23,14.07c-2,2.34-3.5,5.22-3.82,8.31
		c-0.36,2.22-5.56,4.66-7.5,6.17c-4.74,3.67-9.56,7.09-15.02,9.6c4.67-7.03,8.21-15.04,10.59-23.12
		c2.75-9.36,5.14-18.78,15.06-22.63c9.07-3.52,19.68-4.1,25.28-13.23c4.43-7.22,3.44-16.8,9.09-23.38
		c-6.09,6.19-5.67,15.8-10.64,22.65c-6.15,8.49-17.33,7.86-26.3,11.03c-10.25,3.67-13.98,13.21-17.43,22.69
		c-2.97,8.12-6.98,16.23-12.48,22.95c-2.65,3.24-6.1,6.55-10.38,7.34c-2.21,0.41-4.72,0.19-6.93,0.08
		c-9.84-0.51-21.44-2.71-30.37,2.76c-6.63,4.11-11.22,11.39-16.94,16.69c-3.45,3.19-7.09,6.57-11.44,8.46
		c-4.5,1.95-9.38,2.86-14.1,4.15c-5.31,1.45-10.52,3.35-14.98,6.65c4.36-10.54,16.69-12.68,24.88-19.56
		c4.95-4.16,8.42-9.47,10.52-15.57c1.8-5.22,2.07-10.66,3.48-15.94c1.52-5.7,5.41-10.63,9.64-14.62c3.88-3.67,13.04-0.67,17.83,0.03
		c1.4,0.2,2.8,0.41,4.21,0.51c1.11,1,2.14,2.07,3.26,3.04c2.37,2.06,5.12,3.19,8.3,2.79c3.52-0.45,6.72-2.35,9.88-3.83
		c2.87-1.34,5.72-2.62,8.49-4.17c-4.29,2.04-8.78,3.66-13.22,5.35c-5.59,2.12-9.55,1.41-13.56-3c14.97,0.06,26.06-10.24,37.15-18.99
		c-7.38,5.07-14.56,10.85-23,14.07c-11.22,4.27-21.08,0.26-32.34-1.24c8.44-5.58,17.74-9.72,26.99-13.77
		c6.88-3.02,11.82-6.88,15.51-13.42c2.27-4.05,3.02-8.48,8.56-7.79c3.96,0.5,7.63,1.98,11.67,2.11c7.69,0.25,14.12-3.14,20.17-7.52
		c-5.04,3.16-10.32,5.88-16.38,6.21c-6.04,0.33-11.26-3.15-17.1-3.23c3.15-2.66,7.36-3.41,11.24-4.36
		c5.1-1.29,10.16-2.79,15.07-4.68c8.57-3.3,17.24-7.88,22.72-15.5c-6.25,7.32-15.56,11.12-24.61,13.66
		c-4.58,1.27-9.24,2.23-13.93,3.01c-4.73,0.76-9.57,1.39-13.54,4.32c1.01-5.76,1.62-12.32,6.13-16.53
		c5.52-5.15,13.93-6.02,21.11-6.37c-6.49-0.12-13.34,0.22-19.2,3.31c-5.74,3.03-7.8,7.99-9.44,13.95c-0.85,3.09-1.55,6.22-2.4,9.31
		c-0.77,2.89-2.16,5.17-3.87,7.79c-3.01,4.57-6.5,7.55-11.68,9.58c-17.78,6.97-37.82,12.65-49.17,29.3
		c-0.81-4.2-2.18-8.27-3.62-12.29c-1.54-4.32-3.51-8.21-2.76-12.88c0.67-4.24,3.21-7.62,7.09-9.42c4.16-1.93,8.91-1.7,13.11-3.5
		c1.76-0.75,3.38-1.87,4.66-3.3c0.76-0.85,2.01-3.53,3.22-3.3c4.02,0.97,9.23-2.53,12.03-5.03c5.71-5.12,7.73-16.17,17.55-14.26
		c-6.12-1.62-10.21,2.51-13.59,7.03c-3.29,4.4-8.97,11.28-15.44,9.88c3.63-6.42,6.67-13.37,13.74-16.64
		c-9.37,3.73-11.95,13.33-18.24,20.26c-3.75,4.13-8.81,3.9-13.91,4.75c-5.31,0.89-10.11,3.53-12.7,8.41c-0.06-0.5-0.18-3.4-0.2-3.44
		c-0.1-14.18,8.67-27.21,18.94-36.75c0.99-0.19,1.66-0.47,1.66-0.47s-0.12-0.29-0.35-0.71c0.86-0.76,1.72-1.51,2.59-2.22
		c-0.91,0.65-1.82,1.33-2.71,2.02c-0.59-1.02-1.75-2.63-3.54-3.37c-2.72-1.13-5.86,0.2-5.86,0.2s1.28,3.15,4,4.28
		c1.21,0.5,2.49,0.52,3.55,0.38c-5.71,4.71-10.82,10.24-14.73,16.5c-2.95-3.48-2.57-9.92-0.89-13.88c1.76-4.14,5.12-6.93,8.8-9.32
		c-7.01,3.91-11.55,9.51-11.32,17.89c0.05,1.72,0.27,3.42,0.99,4.99c1.02,2.23,1.37,1.91,0.12,4.38c-1.19,2.35-2.18,4.82-2.93,7.35
		c-0.08-0.63-0.17-1.27-0.26-1.94c-0.14-0.85-0.25-1.7-0.51-2.68c-0.05-0.22-0.15-0.51-0.24-0.78c-0.07-0.2-0.04-0.1-0.05-0.12
		c0,0.02-0.04-0.18-0.06-0.26c-0.1-0.44-0.2-0.88-0.29-1.32c-0.8-3.56-1.87-7.27-2.98-10.93c-1.11-3.66-2.25-7.29-3.15-10.74
		c-0.9-3.44-1.54-6.7-1.85-9.53c-0.2-1.41-0.23-2.72-0.32-3.88c-0.01-1.16-0.03-2.17-0.02-3c0.09-1.67,0.14-2.62,0.14-2.62
		s-0.12,0.95-0.34,2.61c-0.08,0.83-0.14,1.85-0.22,3.02c0,1.17-0.07,2.49,0.02,3.93c0.1,2.88,0.49,6.24,1.14,9.79
		c0.64,3.55,1.5,7.29,2.33,11.02c0.83,3.72,1.59,7.43,2.1,10.92c0.06,0.44,0.12,0.87,0.19,1.3l0.06,0.38
		c0.04,0.2,0.13,0.51,0.13,0.51c0.03,0.15,0.08,0.27,0.1,0.47c0.13,0.7,0.19,1.53,0.25,2.31c0.03,0.46,0.05,0.9,0.08,1.35
		c-1.12-2.48-4.29-4.79-6.85-6.13c-3.66-1.93-5.21-2.97-8.82-4.25c-4.33-1.53-9-6.38-6.29-11.01c2.35-4.02,6.24-12.03,0.02-14.95
		c2.77,1.53,3.15,4.83,2.57,7.67c-0.76,3.75-3.82,5.83-4.86,9.35c-3.34-6.1-7.02-14.73-4.62-21.75c-1.99,4.74-0.89,10.35,0.49,15.1
		c1.74,5.99,4.44,11.97,9.22,16.14c-5.39,1.23-10.73,2.76-16.09,4.16c-4.3,1.12-6.82-8.82-8.9-11.38c2.56,3.62,2.85,9.69,6.93,12.13
		c-3.04,1.33-7.42,3.29-9.91-0.01c-2.86-3.8-1.82-9.39-5.4-12.85c3.83,4.23,1.29,13.94,7.78,15.74c3.87,1.07,8.46-1.54,12.33-2.28
		c-2.94,2.61-4.9,6.12-8,8.59c-2.74,2.17-5.85,3.57-9.2,4.52c3.82-0.81,7.42-2.23,10.54-4.64c3.68-2.84,6.1-7.26,10.58-8.99
		c3.11-1.2,7.09-1.8,10.55-2.18c2.9-0.32,6.45,0.78,8.65,2.49c11.18,8.67,11.83,21.41,12.06,22.69c1.47,8.09,4.66,15.76,5.94,23.89
		c2.12,13.33-1.17,28.43-13.47,35.54c-8.66,4.84-18.41,7.02-24.39,15.65c-3.3,4.76-5.43,10.41-7.31,15.86
		c-6.03,17.5-9.95,35.74-15.65,53.36c-0.73-5.74-1.88-11.34-3.6-16.87c-1.87-6-4.77-11.62-6.32-17.73
		c-1.39-5.53-1.54-11.08,1.61-16.05c2.88-4.55,6.93-8.26,10.14-12.57c1.11-1.49,1.63-2.73,3.14-3.84c2.34-1.73,4.75-3.39,6.88-5.38
		c4.69-4.38,6.2-9.32,6.15-15.59c-0.36-3.86-2.96-6.84-1.32-10.83c1.11-2.7,4.51-3.96,6.38-6.09c1.58-1.77,2.27-3.97,2.17-6.32
		c-0.18,7.62-9.58,8.07-10.33,15.3c-2.65-4.58-1.29-7.82,2.09-11.56c2.68-2.96,5.85-5.42,8.61-8.3c-4.32,3.94-13.6,8.68-13.78,15.3
		c-1.78-4.76-0.45-8.02,2.14-12.21c-2.28,3.2-4.67,6.77-3.52,10.89c0.9,3.23,2.83,6.22,4.2,9.25c3.67,8.07-1.65,15.56-8.21,19.93
		c2.32-7.47,1.86-14.16-3.56-20.27c-2.88-3.24-6.41-6.03-9.04-9.47c-3.38-4.51-0.16-8.3,3.46-11.37c3.45-2.92,7.12-5.61,10.66-8.42
		c2.57-2.04,3.28-2.43,6.48-2.81c8.8-1.02,15.7-5.83,21-12.66c-3.41,3.86-7.18,7.23-12.1,9.05c0.47-1.23,1.43-2.15,1.82-3.42
		c0.51-1.67,0.8-3.47,1.59-5.05c1.34-2.69,3.43-5.25,5.78-7.15c-4.87,3.38-6.15,7.46-8.53,12.49c-0.8,1.41-1.84,3.58-3.23,3.97
		c-2.6,0.73-5.24,1.1-7.93,1.15c5.66-5.45,10.03-11.87,11.14-19.76c-1.62,7.75-6.37,13.79-12.35,18.78c-0.3-1.73-0.14-3.5-0.24-5.25
		c-0.19-2.39-1-4.94-0.74-7.34c0.44-4.08,3.66-7.28,6.24-10.2c-2.04,2.02-4.21,4.02-5.69,6.51c-2.07,3.6-1.18,7.13-1.13,11.06
		c-0.01,1.46-0.2,2.91-0.17,4.38c0,0.69,0.08,1.37,0.23,2.03c-0.95,0.75-1.91,1.48-2.88,2.2c-3.19,2.38-6.48,4.56-9.77,6.79
		c-5.63,3.82-11.61,9.45-7.33,16.58c3.5,5.83,12.14,10.97,12.29,18.35c-2.02-3.11-3.05-5.71-7.18-6.27
		c-3.79-0.52-7.73,0.46-11.38-1.09c-1.61-0.65-2.67-0.76-2.34-2.56c0.3-1.72,0.64-3.44,0.68-5.19c0.03-2.69-0.91-5.05-3.18-6.59
		c4.11,3.19,2.47,8.19,1.46,12.45c-5.03-3.93-5.39-11.75-6.19-17.55c0.42,5.9,0.4,12.9,4.49,17.63c-1.7,0.49-3.57,1.41-4.94-0.4
		c-1.55-2.05-2.35-4.47-4.16-6.38c-3.25-3.42-7.38-4.94-11.94-5.57c5.26,1.1,9.68,3.43,12.62,8.1c1.42,2.26,1.89,5.79,4.94,6.44
		c1.9,0.4,3.29-0.96,4.94-0.77c2.35,1.97,5.55,2.95,8.56,3.29c2.59,0.29,6.03-0.29,8.26,1.34c2.17,1.48,2.17,4.54,4.12,6.29
		c1.62,1.45-0.76,5.44-1.62,7.13c-5.5,10.84-18.27,16.26-19.08,29.65c-1.08,12.76,5.78,24.72,7.45,37.18
		c-3.55-9.44-6.54-19.08-10.14-28.5c-3.6-9.42-8.28-18.97-16.3-25.4c-3.61-2.89-8.14-4.19-12.63-4.89
		c-2.44-0.38-8.84-0.15-10.27-2.75c-1.73-3.13,0.64-8.59,1.51-11.7c1.01-3.63,1.81-7.2,2.2-10.94c0.49-4.69,0.56-9.51-0.63-14.11
		c-0.57-2.21-1.43-4.33-2.59-6.29c-0.54-0.91-1.14-1.76-1.79-2.59c0.01-1.32,0.18-2.4,0.44-3.69c4.45-8.5,15.46-10.21,23.83-11.97
		c3.14-0.66,5.6-2.83,8.68-3.52c4.01-0.89,8.4-0.86,12.1-2.82c5.98-3.3,8.33-9.97,12.53-14.92c0.5-0.4,0.88-0.87,1.16-1.26
		c1.32-1.33,2.82-2.49,4.67-3.34c-1.65,0.63-3.04,1.48-4.31,2.45c-0.47-0.19-2.18-0.8-3.74-0.22c-1.83,0.68-2.76,2.74-2.76,2.74
		s1.7,0.78,3.39,0.41c-1.47,1.65-2.8,3.47-4.18,5.37c-1.85,2.53-3.85,5.06-6.59,6.67c-3.01,1.77-6.63,1.71-10.01,2.01
		c4.97-4.79,8.87-10.42,14.93-13.97c-5.4,2.7-9.39,6.96-13.73,11.05c-4.68,4.42-9.37,6.89-15.94,7.64
		c2.64-8.14,5.16-16.21,13.29-20.33c-8.52,3.62-11.65,11.68-14.89,19.75c-0.61,1.52-4.38,1.38-5.99,1.79
		c-2.25,0.58-4.44,1.43-6.51,2.49c-4.08,2.09-8.71,5.07-10.19,9.64c-4.92-4.41-13.34-9.62-11.38-17.2
		c1.58-6.11,8.84-8.01,14.02-9.92c-6.12,1.8-12.61,3.3-15.27,9.75c-1.18-6.19,3.9-11,8.31-14.46c2.32-1.82,4.76-3.47,7.16-5.17
		c1.55-1.1,4.09-4.05,5.96-4.15c10.36-0.54,21.24-2.38,29.56-8.99c4.45-3.53,8.03-8.27,9.87-13.67c0.4-1.16,0.7-2.36,0.94-3.58
		c0.46-0.03,0.94-0.08,1.46-0.19c3.02-0.55,6.74-2.13,10.39-5c0.93-0.74,1.8-1.48,2.75-2.48c0.87-0.98,1.68-2.03,2.39-3.12
		c1.45-2.19,2.66-4.65,3.63-7.23c1.96-5.18,2.98-10.83,3.82-16.38c0.21-1.4,0.41-2.81,0.62-4.2c0.13-1.39,0.27-2.77,0.4-4.14
		c0.03-0.32,0.08-0.62,0.12-0.93c1.1-0.8,2.45-1.92,3.97-3.13c1.77-1.39,3.74-2.69,6.41-2.89c1.31-0.12,2.75-0.1,4.18,0.1
		c1.44,0.16,2.94,0.56,4.46,0.86c3.03,0.64,6.1,1.33,9.06,1.58c2.96,0.25,5.76-0.01,8.03-0.67c2.28-0.65,3.99-1.61,5.19-2.25
		c1.15-0.72,1.81-1.14,1.81-1.14s-0.68,0.36-1.88,0.99c-1.24,0.54-3,1.36-5.25,1.82c-2.24,0.48-4.93,0.51-7.74,0.06
		c-2.81-0.46-5.76-1.36-8.73-2.23c-1.5-0.42-2.96-0.93-4.54-1.24c-1.57-0.34-3.14-0.5-4.73-0.48c-1.58,0.02-3.18,0.34-4.56,0.92
		c-1.39,0.57-2.55,1.3-3.55,1.96c-0.51,0.35-0.99,0.68-1.44,0.99c0.12-0.74,0.22-1.5,0.36-2.23c0.93-5.09,2.26-9.76,4.09-13.46
		c1.79-3.72,4.18-6.34,6.27-7.57c1.02-0.65,1.92-1,2.53-1.21c0.63-0.19,0.96-0.28,0.96-0.28s-0.34,0.07-0.98,0.21
		c-0.64,0.16-1.57,0.45-2.66,1.03c-2.23,1.09-4.92,3.62-7.06,7.32c-2.19,3.67-3.93,8.37-5.27,13.5c-0.19,0.72-0.36,1.47-0.53,2.2
		c-0.55-0.04-1.27-0.27-1.97-0.67c-0.98-0.54-1.95-1.27-2.87-2.11c-1.82-1.69-3.48-3.71-4.82-5.86c-0.66-1.1-1.23-2.14-1.56-3.32
		c-0.38-1.2-0.62-2.49-0.89-3.81c-0.29-1.33-0.55-2.72-1.12-4.07c-0.23-0.68-0.62-1.31-0.97-1.94c-0.37-0.62-0.86-1.16-1.29-1.73
		c0.01,0.01-0.06,0.09-0.12,0.17c-2.2-3.38-5.18-6.1-8.47-8.31c-3.29-2.19-6.96-3.92-10.84-4.52c3.82,0.92,7.25,2.92,10.27,5.3
		c3.01,2.41,5.66,5.27,7.7,8.47l0.16-0.02c1.54,2,2.1,4.38,2.38,7.02c0.16,1.33,0.3,2.71,0.62,4.11c0.12,0.67,0.37,1.48,0.64,2.13
		c0.26,0.7,0.57,1.33,0.89,1.97c1.31,2.53,2.91,4.85,4.87,6.98c0.99,1.06,1.97,2.28,3.4,2.93c3.11,1.41,2.74,3.22,2.74,3.22
		c-0.23,1.29-0.45,2.6-0.68,3.91c-0.3,1.34-0.61,2.68-0.91,4.02c-1.25,5.41-2.67,10.73-4.78,15.22c-1.05,2.24-2.26,4.27-3.6,5.98
		c-0.67,0.87-1.36,1.62-2.03,2.28c-0.66,0.59-1.49,1.21-2.25,1.72c-3.12,2.09-6.13,3.01-7.93,3.17c-0.06,0.01-0.11,0.01-0.17,0.01
		c-0.22-1.68-0.45-3.42,0.5-4.79c2.72-3.82,5.44-8.63,4.86-13.46c-0.74-4.67-2.98-8.96-3.99-13.57c0.66,4.4,2.47,8.57,2.98,12.99
		c0.54,4.66-2.3,9.25-5.19,12.7c-1.68-7.56-3.36-15.5-7.26-22.27c-3.07-5.32-7.28-9.71-11.63-13.98c4.29,4.8,8.4,9.74,11.09,15.66
		c1.63,3.59,2.75,7.42,3.32,11.32c0.71,4.8,2.06,9.51,2.25,14.38c0.07,1.81-0.06,3.53-0.35,5.16l-0.58,2.31c0,0,0.03,0.01,0.05,0.01
		c-3.45,11.99-16.37,18.58-28.86,19.25c4.83-4.81,8.96-10.64,9.95-17.53c1.07-7.47-1.21-15.14-4.98-21.55
		c-8.14-13.84-21.48-19.58-37.01-21.01c16.45,2.72,30.42,10.48,36.1,27.01c-2.29,0.02-4.03,1.49-6.1,2.17
		c-2.38,0.75-4.75,1.39-7.17,2c-2.6,0.73-5.42,0.82-8.1,0.91c-0.96,0.03-1.88,0.01-2.84-0.06c-1.57-0.04-1.2-0.81-1.75-2.03
		c-4.18-9.22-13.99-15.69-23.23-19.08c4.55,2.02,8.75,4.77,12.52,8.02c3.55,3.06,8.08,7.59,9.02,12.43
		c-6.18-1.86-11.49-5.71-17.79-7.34c-5.28-1.36-10.42-1.29-15.75-0.37c5.3-0.55,10.36-0.3,15.45,1.38
		c6.42,2.13,11.77,6.38,18.05,8.82c5.43,1.36,10.8,1.3,16.32,0.41c0.85-0.14,11.71-2.89,11.77-2.63c0.98,4.4,1.66,9.13-0.17,13.4
		c-2.77,6.46-8.64,11.18-14.26,15.09c-9.71,6.75-24.97,12.45-28.22,25.1c-1.57-1.72-3.6-3.58-3.9-6.02
		c-0.32-2.57,1.09-5.13,1.74-7.54c1.59-5.58-0.24-10.2-3.01-15.02c0.67-2.51,1.39-7.45,1.24-10.12c-0.26-4.57-4.7-7.81-6.27-11.95
		c1.19,3.92,4.36,6.9,5.28,10.9c0.43,2.54-0.99,6.62-1.43,9.2c-3.74-6.09-8.91-13.44-16.23-15.37c8.99,3.02,15.93,15.29,18.34,24.05
		c1.69,6.17-3.64,10.87-2.82,16.82c0.4,2.98,2.44,5.31,4.23,7.58c0.7,0.88,2.16,2.19,2.2,3.25c-7.79-4.41-17.85-7.96-20.49-17.59
		c1.36,6.65,6.9,11.33,12.31,14.88c2.91,1.91,6.78,3.12,8.52,6.27c1.87,3.37,2.79,7.02,5.02,10.24c3.9,5.62,10.91,9.84,13.53,16.21
		c2.25,5.48,0.98,12.63-0.81,18.14c-2.23,6.86-5.59,13.96-4.49,21.36c1.04,7.07,6.53,11.2,13.03,13.15
		c4.86,1.46,11.1,1.19,14.73,5.19c4.47,4.92,6.78,11.7,8.68,17.95c-14.47-8.96-33.01-10.2-45.61-22.11
		c-5.37-5.08-10.11-10.96-16.09-15.39c-0.17-0.12-0.35-0.22-0.52-0.34c-0.22-0.26-0.42-0.5-0.64-0.76
		c-0.73-0.88-1.51-1.81-2.29-2.78c-0.03-0.04-0.04-0.07-0.07-0.11c-0.58-0.94-1.42-2.08-2.45-3.3c-0.39-0.6-0.75-1.23-1.1-1.87
		c-0.03-0.17-0.08-0.32-0.1-0.5c-0.3-1.8-0.44-4.05,0.15-6.24c0.17-0.53,0.38-1.05,0.57-1.59c0.3-0.52,0.57-1.07,0.91-1.59
		c0.69-1.04,1.47-2.06,2.34-3.05c1.7-1.99,3.63-3.97,4.9-6.21c0.57-1.14,1.23-2.18,1.66-3.26c0.4-1.09,0.85-2.09,1.14-3.05
		c0.25-0.97,0.49-1.87,0.69-2.66c0.2-0.79,0.25-1.5,0.35-2.08c0.17-1.15,0.27-1.81,0.27-1.81s-0.15,0.65-0.4,1.78
		c-0.15,0.56-0.24,1.26-0.5,2.03c-0.26,0.76-0.56,1.62-0.88,2.56c-0.36,0.92-0.87,1.87-1.34,2.89c-0.49,1.01-1.21,1.97-1.84,3.02
		c-1.36,2.02-3.32,3.76-5.23,5.66c-0.96,0.94-1.89,1.96-2.73,3.05c-0.42,0.55-0.77,1.14-1.16,1.71c-0.3,0.64-0.61,1.28-0.87,1.92
		c-0.16,0.47-0.29,0.93-0.4,1.39c-0.63-2.09-1.11-4.3-1.48-6.52c-0.66-4.24-1.05-8.61-0.56-12.56c0.47-3.98,1.87-7.54,3.44-10.4
		c1.55-2.88,3.21-5.08,4.31-6.65c1.14-1.55,1.8-2.43,1.8-2.43s-0.72,0.83-1.98,2.29c-1.22,1.49-3.05,3.56-4.86,6.36
		c-1.82,2.78-3.58,6.38-4.4,10.56c-0.1,0.52-0.21,1.05-0.31,1.58c-0.08,0.53-0.11,1.07-0.16,1.61c-0.13,1.09-0.15,2.18-0.18,3.29
		c-0.06,2.21,0.03,4.45,0.22,6.69c0.24,2.6,0.61,5.21,1.21,7.74c-0.79-0.67-1.59-1.33-2.42-2.01c-1.31-1.07-2.66-2.16-3.99-3.3
		c-0.67-0.57-1.32-1.14-1.96-1.72c-0.57-0.63-1.18-1.22-1.71-1.89c-2.17-2.66-3.84-5.81-4.37-9.01c-0.65-3.19,0.07-6.3,1.4-8.55
		c1.33-2.28,3.17-3.66,4.43-4.56c1.34-0.8,2.14-1.23,2.14-1.23s-0.82,0.37-2.24,1.07c-1.34,0.81-3.32,2.06-4.92,4.35
		c-1.59,2.25-2.64,5.59-2.2,9.11c0.31,3.53,1.85,7.08,3.99,10.15c0.52,0.78,1.15,1.5,1.74,2.24c0.64,0.68,1.28,1.34,1.92,1.97
		c1.28,1.26,2.55,2.47,3.77,3.63c2.43,2.32,4.63,4.5,6.29,6.49c0.5,0.59,0.93,1.15,1.33,1.69c0.2,0.37,0.41,0.73,0.62,1.08
		c0.03,0.06,0.05,0.1,0.08,0.16c-7.13-1.9-15.09-1.4-22.2-0.62c-3.57,0.4-8.97,2.03-12.26-0.15c-2.41-1.6-3.27-5.37-3.93-7.94
		c-2.25-8.86-2.78-17.92-0.8-26.86c1.05-4.46,1.89-8.81,4.83-12.47c3.47-3.99,8.08-6.74,11.65-10.64c1.55-1.83,3.03-3.65,3.86-5.93
		c0.81-2.25,1.05-4.64,0.91-7.02c-0.08-1.44-0.63-2.01,0.59-2.95c1.18-0.82,2.17-2,3.06-3.1c6.69-7.98,7.13-19.53,11.88-28.56
		c-5.57,9.05-6.74,23.6-16.22,29.72c-1.52-7.04-4.86-13.74-5.65-20.93c-0.86-6.8,2.75-10.88,8.77-13.15
		c-6.46,1.95-10.38,6.16-9.96,13.24c0.34,7.83,3.68,15.19,4.44,22.96c0.15,1.51,0.71,8.45-1.7,7.45c-3.39-1.41-5.71-4.41-8.12-7.05
		c-4.9-5.37-8.22-11.78-5.94-19.13c-2.09,5.43-1.09,11.04,1.88,15.93c2.53,4.18,7.12,11.37,12.21,12.64
		c-2.52,4.15-7.21,6.78-11.01,9.58c-2.21,1.66-4.04,3.44-5.58,5.43c-0.05-0.48-0.1-0.96-0.15-1.45c-0.04-0.7-0.19-1.39-0.35-2.1
		c-0.15-0.71-0.31-1.43-0.46-2.17c-0.33-1.47-0.81-2.84-1.23-4.35c-0.45-1.41-0.91-2.86-1.39-4.36c-0.43-1.47-0.88-2.98-1.33-4.53
		c-0.38-1.56-0.76-3.16-1.16-4.78c-1.47-6.61-2.82-13.79-3.74-20.95c-0.29-2.25,0.05-7.58,0.73-9.33c0.68-1.74,1.63-4.21,2.89-7.11
		c1.26-2.89,2.83-6.22,4.85-9.55c1.02-1.65,2.13-3.32,3.44-4.82c1.28-1.51,2.77-2.96,4.4-3.91c3.44-1.87,7.97-2.7,11.51-5.04
		c1.8-1.15,3.23-2.64,4.34-4.17c0.28-0.38,0.55-0.76,0.82-1.13c0.23-0.4,0.46-0.79,0.68-1.17c0.47-0.75,0.83-1.53,1.16-2.27
		c1.33-2.98,2.04-5.58,2.54-7.39c0.48-1.82,0.76-2.85,0.76-2.85s-0.35,1.01-0.97,2.78c-0.64,1.76-1.55,4.29-3.06,7.09
		c-0.38,0.7-0.78,1.42-1.28,2.1c-0.24,0.35-0.48,0.7-0.73,1.06c-0.28,0.33-0.57,0.67-0.86,1.01c-1.16,1.36-2.57,2.62-4.24,3.5
		c-1.67,0.92-3.59,1.52-5.61,2.09c-2.01,0.6-4.13,1.06-6.27,2.05c-2.17,1.06-3.91,2.54-5.48,4.12c-1.59,1.57-2.93,3.27-4.15,4.95
		c-2.42,3.38-4.32,6.73-5.86,9.62c-0.27,0.5-0.51,0.97-0.75,1.45c0-1.43,0.01-2.86,0.07-4.25c0.27-6.77,1.32-13.05,2.82-18.27
		c1.42-5.27,3.51-9.35,4.92-12.21c1.64-2.75,2.58-4.32,2.58-4.32s-1.06,1.5-2.91,4.12c-1.63,2.76-4.06,6.72-5.92,11.97
		c-1.82,4.87-3.3,10.75-4.15,17.15c-1.31-2.83-3.17-6.26-4.79-9.79c-0.88-1.9-1.63-3.85-2.22-5.71c-0.56-1.87-0.96-3.66-1.14-5.22
		c-0.14-0.78-0.14-1.5-0.19-2.14c-0.06-0.64-0.05-1.2-0.03-1.66c0.02-0.92,0.03-1.45,0.03-1.45s-0.05,0.52-0.14,1.44
		c-0.05,0.46-0.1,1.02-0.1,1.67c0,0.65-0.05,1.38,0.02,2.17c0.06,1.59,0.32,3.44,0.75,5.4c0.46,1.95,1.07,4,1.81,5.99
		c1.48,3.99,3.22,7.84,4.27,10.78c0.54,1.46,0.93,2.69,1.17,3.55c0.02,0.07,0.03,0.12,0.05,0.18c-0.27,4.13-0.43,9.09-0.43,9.09
		c-0.02,2.93,0.02,5.88,0.17,8.83c0.38,7.43,1.19,14.76,2.17,21.66c0.28,1.74,0.56,3.46,0.83,5.14c0.35,1.66,0.7,3.29,1.03,4.87
		c0.36,1.54,0.72,3.03,1.06,4.48c0.27,1.37,0.64,2.74,0.81,3.97c0.08,0.61,0.16,1.21,0.24,1.8c0.07,0.46,0.12,0.9,0.13,1.34
		c-2.65-4.07-6.23-7.44-10.78-9.76c-5.19-2.65-10.34-4.66-14.64-8.73c-2.87-2.71-3.12-6.95-4.12-10.52c-0.6-2.16-0.41-2.25,0.43-4.2
		c0.92-1.94,1.53-3.95,1.89-6.06c1.37-7.84-1.17-15.82-5.38-22.39c4.7,8.52,6.56,19.3,1.45,28.08c-3.42-7.92-9.63-13.14-17.82-15.53
		c3.6,1.31,6.9,3.01,9.72,5.66c1.65,1.56,3.07,3.35,4.22,5.31c0.6,1.02,1.13,2.08,1.6,3.16c0.73,1.69,1.36,2.24-0.46,3.04
		c-8.21,3.6-21.31-0.18-26.66-7.35c5.32,8.21,19.72,12.93,28.63,8.69c1.62,5.99,1.54,11.61,6.39,16.16
		c-5.66,2.22-10.37,3.68-16.63,2.71c-3.61-0.56-7.17-1.48-10.74-2.24c-1.68-0.36-3.37-0.69-5.07-0.99
		c-0.86-1.15-1.71-2.31-2.61-3.43c-8.41-10.45-22.83-14.57-35.61-10.27c13.2-3.48,26.99,1.77,34.41,13.11
		c-7.46-1.02-14.25-0.67-21.46,1.63c-4.26,1.36-8.35,3.14-12.37,5.07c-0.03-0.02-0.05-0.03-0.05-0.03s0.03,0.03,0,0.08
		C30.89,158.55,30,158.77,30,159c0-0.01,0-0.04,0-0.04s-2.24,0.02-3.56,1.39c-1.32,1.37-1.29,3.57-1.29,3.57s2.19-0.02,3.51-1.39
		c1.09-1.12,1.23-2.79,1.26-3.35c0.41-0.17,0.82-0.33,1.24-0.5c-0.2,0.46-0.45,1.23-0.27,2c0.28,1.21,1.51,1.96,1.51,1.96
		s0.76-1.22,0.48-2.43c-0.19-0.83-0.83-1.44-1.21-1.74c5.17-2.06,10.43-3.9,15.93-4.9c8.95-1.63,17.65,0.34,26.28,2.81
		c-5.88,4.34-12.48,8.27-19.65,10.02c-9.56,2.43-20.17,0.54-28.57,6.73c8.75-5.6,19.27-3.03,28.95-4.79
		c7.83-1.36,16.25-5.1,22.52-10.01c1.11-0.87,2.2-0.28,3.58,0.05c2.73,0.64,5.4,1.37,8.2,1.65c3.71,0.33,7.64-0.06,11.15-1.36
		c1.81-0.69,3.63-1.42,5.55-1.75c2.04-0.35,3.21,0.72,4.99,1.71c4.06,2.27,7.95,4.55,10.76,8.36c-9.27-2.87-19.37-0.72-26.98,5.12
		c-7.16,5.49-15.63,7.22-23.96,10.29c4.95-1.46,10.06-2.39,14.98-3.91c6.02-1.87,10.48-6.21,16.34-8.26
		c-5.61,11.95-14.89,18.9-26.41,24.72c8.13-3.45,16.17-7.36,22.09-14.12c2.72-3.1,5.09-6.56,6.97-10.24
		c1.81-3.48,10.52-1.8,13.78-0.89c1.99,0.55,3.92,1.39,5.63,2.55c1.55,1.06,1.85,4.32,2.18,6.08c0.02,0.09,0.39,2.39,0.39,2.39
		c0.67,4.72,0.75,9.54,0.6,14.28c-0.23,7.22,0.9,14.84,3.05,21.71c6.25,19.97,34.63,2.46,46.81,14.65
		c6.16,6.17,11.33,13.22,17.68,19.21c4.47,4.22,10.07,6.92,15.6,9.5c12.97,6.04,26.73,10.51,35.57,22.46
		c-12.35-9.4-27.49-13.48-42.84-13.07c-3.65,0.18-7.3,0.4-10.94,0.79c-2.15,0.23-4.3,0.51-6.44,0.83c-0.99-1.4-1.97-2.81-2.98-4.19
		c-4.15-5.68-9.35-12.62-16.36-14.87c-7.38-2.38-14.93-0.27-22.42,0.24c-7.68,0.52-15.87-2.23-22.85-5.24
		c-1.26-0.54-6.82-2.23-6.94-3.81c-0.23-2.94-0.73-6.04-2.61-8.44c-3.83-5.48-8.46-10.23-14.7-12.82c3.65,1.8,6.6,4.21,9.23,7.34
		c3,3.56,6.7,8.41,6.7,13.31c-8.34-4.77-16.07-10.53-25.07-14.05c-7.65-2.99-15.44-4.08-23.6-4.14
		c11.58,0.87,21.88,4.22,31.69,10.54c5.06,3.26,9.57,7.27,14.59,10.59c5.66,3.74,11.7,6.9,18.08,9.22
		c-12.43,2.46-24.22,6.17-36.52,1.31c6.39,3.03,12.77,4,19.84,3.45c4.25-0.33,8.46-1.03,12.67-1.67c3.44-0.52,7.86-1.77,11.28-0.87
		c7.98,2.12,15.89-0.17,23.94,0.78c8.06,0.95,12.74,8.74,16.66,15.06c-8.45,1.9-16.79,4.68-24.34,8.98
		c-3.89,2.22-8.93,8.21-13.52,7.48c-4.54-0.72-9.03-3.69-12.96-5.92c-7.65-4.34-15.46-8.48-23.42-12.24
		c-2.97-1.4-5.84-2.55-9.05-3.33c-2.24-0.55-2.1-0.35-3.26-1.88c-1.09-1.76-2.96-2.82-4.78-3.67c-3.23-1.46-6.59-2.3-8.98-5.12
		c-1.86-2.18-2.69-5.27-3.65-7.92c-0.54-1.49-1.05-2.9-1.83-4.29c-0.36-0.64-0.77-1.19-1.22-1.78c-0.42-0.55-0.9-1.05-1.4-1.52
		c-0.94-0.9-0.73-1.74-1.39-2.87c-3.55-6.17-10.46-10.96-17.16-12.98c6.24,2.34,13.21,7.51,15.94,13.8
		c-3.8-2.35-8.13-2.94-12.42-3.78c-7.68-1.51-15.36-3.03-23.17-3.74c7.25,1.16,14.37,3.01,21.46,4.93c2.83,0.77,5.8,1.33,8.53,2.39
		c5.34,2.07,8.11,5.84,9.83,11.16c1.03,3.18,1.73,6.36,3.67,9.14c0.58,0.83,3.39,3.61,3.76,3.62c1.78,1.05,3.71,1.8,5.54,2.75
		c-13.71-1.24-27.35,1.2-40.79,3.68c13.54-1.58,27.33-3.14,40.89-0.91c14.36,2.36,27.07,10.73,38.89,18.84
		c-10.87,4.2-24.22,23.19-36.49,13.14c-2.18-1.78-4.02-3.61-6.58-4.8c-3.82-1.79-7.93-2.88-12.09-3.49
		c-7.09-1.03-14.25-0.69-21.35,0.14c7.47-0.38,15.01-0.22,22.32,1.53c4.17,1,8.09,2.57,11.75,4.81c2.37,1.43,4.11,4.08,6.32,5.78
		c-10.41,0.89-20.69,0.51-30.91,3.1c-8.46,2.15-16.38,5.55-24.22,9.34c7.06-2.85,14.15-5.43,21.61-7.05
		c10.3-2.23,20.35-1.65,30.79-1.59c-2.67,2.24-4.68,5.22-7.45,7.32c-2.68,2.17-5.73,3.78-8.99,4.89c-5.61,1.9-11.56,2.42-17.43,2.93
		c-0.41-1.08-1.54-3.54-3.77-4.77c-2.91-1.61-6.6-0.51-6.6-0.51s1.04,3.7,3.96,5.31c2.91,1.61,6.6,0.51,6.6,0.51
		s-0.06-0.19-0.17-0.5c8.72-0.18,17.94-0.42,25.63-5.04c3.9-2.35,6.69-5.97,10.44-8.48c3.96-2.66,8.86-1.94,13.39-3.04
		c9.73-2.36,16.32-10.72,25.79-13.48c4.43-1.29,6.98,0.28,11.11,1.71c4.61,1.59,8.93,0.91,12.97-1.77
		c16-10.69,35.14-13.08,54.08-12.75c16.78,0.3,38.67,8.38,43.61,26.34c3,10.91,4.22,22.37,3.23,33.6c-0.7,7.9-1.53,30.86-1.73,38.79
		c-0.2,7.98,1.18,15.85-0.49,23.77c-2.09,9.86-7.35,14.91-14.92,20.73c-16.73,12.86-34.23,24.98-50.25,38.72
		c-1.68,1.44-3.32,2.91-4.94,4.42c-1.48,1.39-3.44,1.62-5.39,2.14c-3.65,0.98-7.35,1.71-11.08,2.3c-5.64,0.9-10.79,2.58-15.95,5.1
		c-7.98,3.9-15.22,8.57-24.06,10.24c-8.55,1.62-17.51-1.32-26.16-0.53c-15.3,1.4-30.39,6.28-45.35,9.5
		c-15.66,3.37-32.35-3.18-46.86,5.46c14.29-7.24,28.89-0.24,43.87-1.84c-9.48,4.88-18.33,10.36-29.32,10.03
		c14.18,1.38,25.24-7.38,38.3-11.11c6.65-1.93,13.99-2.51,20.83-3.65c7.24-1.2,14.91-2.48,22.26-1.99
		c-12.68,3.79-23.77,11.39-36.3,15.6c-10.03,3.37-20.23,3.8-30.71,3.33c7.24,0.8,14.34,1.23,21.61,0.52
		c-1.57,5.75-7.92,8.03-13.06,9.48c4.62-0.98,9.73-2.41,12.7-6.38c0.74-0.99,1.24-2.13,1.64-3.29c1.53-0.24,3.08-0.43,4.59-0.77
		c3.18-0.65,6.31-1.56,9.39-2.57c-5.89,5.67-10.73,12.33-16.63,18c-5.18,4.98-12.49,10.6-19.7,6.11c4.01,2.88,8.67,2.51,12.95,0.36
		c-0.18,3.96,0.25,7.02-1.62,10.73c-1.95,3.86-4.35,7.33-5.69,11.47c2.13-5.36,6.53-9.56,8.25-15.08c0.46-1.54-0.19-7.2,0.97-8.04
		c3.06-2.22,6.04-4.46,8.82-7.04c5.56-5.15,10.7-10.7,16.47-15.62c1.52-1.29,3.02-2.95,4.71-4.02c4.1-1.68,8.21-3.32,12.32-4.99
		c-4.24,6.49-5.55,13.8-12.11,18.69c-5.38,4.01-11.93,6.3-17.77,9.54c6.38-3,13.45-4.91,19.29-8.94c-3.4,5.9-8.4,8.69-14.74,10.58
		c4.54-1.03,8.98-2.41,12.4-5.74c1.66-1.61,3.08-3.49,4.26-5.47c1.23-2.07,2.95-3.59,4.33-5.57c3.14-4.5,4.73-10.89,9.38-14.15
		c3.82-2.68,9.56-3.21,14.17-3.31c-5.45,4.04-9.92,8.89-13.63,14.54c-4.13,6.29-7.71,12.6-12.94,18.13
		c-6.42,6.79-14.09,11.54-21.65,16.9c-6.16,4.22-11.08,9.32-12.88,16.69c1.86-5.89,5.53-10.01,10.56-13.51
		c7.1-4.94,14.84-8.62,21.76-13.88c-0.4,1.92-0.55,3.86-0.58,5.81c-0.04,2.62-0.79,3.17-2.48,5.25c-3.55,4.35-6.88,8.41-11.8,11.23
		c5.91-2.89,9.77-7.68,14.32-12.27c0.51,10.68,1.94,21.15-7.05,28.82c8.58-6.38,9.15-15.85,9.12-25.77
		c3.05,4.77,8.54,2.6,12.39,5.82c3.45,2.89,3.83,7.96,4.14,12.13c-0.04-5.38-0.49-12.52-6.5-14.62c-2.64-0.92-5.75-0.81-7.69-3.11
		c-2.02-2.41-2.33-5.87-1.96-8.84c0.33-2.61,0.96-5.26,2.25-7.58c1.46-2.62,4.41-4.71,6.4-7c3.4-3.92,6.1-8.29,9.22-12.41
		c3.5-4.62,7.84-8.45,12.73-11.54c6.29-3.97,12.9-5.81,19.83-8.14c11.15-3.75,21.05-9.58,32.81-11.45
		c-4.39,7.15-7.81,14.46-10.23,22.53c-0.62,2.07-0.5,4.79-2.77,5.24c-2.43,0.48-4.77,1.08-7.13,1.81c-4.46,1.37-8.8,3.51-12.65,6.13
		c-5.33,3.63-11.6,5.29-18.04,4.74c-5.48-0.45-9.01,1.59-12.07,6.02c-2.61,3.77-5.99,6.72-9.48,9.66c2.22-1.62,4.41-3.27,6.47-5.1
		c2.83-2.51,4.76-6.32,8.15-8.15c3.13-1.85,7.61-0.13,10.96,0.1c2.29,0.23,5.17-0.49,7.33-1.17c-7.48,8.68-11.71,19.46-20.53,27.05
		c10.26-7.7,15.23-19.96,24.99-28.08c-0.14,3.5,1.66,6.61,2.66,9.85c1.09,3.54,0.61,6.84-0.97,10.14
		c-2.82,5.88-7.53,10.76-9.21,17.18c3.28-9.79,14.89-16.6,12.12-28.01c-0.64-2.63-1.91-5.24-1.94-7.98
		c-0.11-3.1,1.36-4.17,3.93-5.36c5.03-2.33,10.2-3.89,15.69-4.61c-3.28,13.97-5.05,28.36-9.45,42.04c-2.79,8.69-6.76,17.15-12.88,24
		c-5.34,5.98-11.89,10.06-19.12,13.39c7.9-3.02,15.08-6.97,21.04-13.07c7.03-7.19,11.72-16.3,15.17-25.66
		c0.31,4.45,1.34,8.75,2.96,12.9c1.79,4.58,4.29,8.94,5.32,13.78c1.44,8.61-4.39,14.05-10.28,19.33c3.32-2.59,6.9-5.15,9.3-8.68
		c3.3-4.85,3.05-10.42,1.39-15.81c-1.72-5.59-4.17-10.87-4.94-16.72c-0.77-5.84,0-11.64,1.05-17.39c1.84,2.92,3.74,5.78,5.66,8.65
		c1.51,2.26,1.77,2.45,1.05,5.13c-0.67,2.48-1.1,5.03-1.28,7.59c-0.42,6.2-0.39,16.46,6.69,19.04c-9.02-3.98-5.82-20.28-3.13-27.26
		c2.49,2.91,5.71,4.69,8.55,7.19c3.04,2.68,4.66,5.94,5.48,9.88c1.36,6.54,1.73,14.27-1.44,20.38c4.87-8.05,5.04-22.71-0.98-30.16
		c-1.67-2.07-3.74-3.77-5.83-5.4c-1.07-0.96-2.08-1.93-2.98-3.07c-1.51-1.91-1.43-2.17-0.23-4.26c3.21-5.61,9.31-9.08,12.98-14.43
		c7.55,10.64,12.8,24,13.31,37.14c0.49,12.6-4.28,23.63-12.99,32.55c5.62-5.04,10.14-10.86,12.76-18.01
		c-1.12,5.3-1.18,10.45-0.75,15.82c-0.19-15.45,6.35-28.05,13.44-41.42c-0.55,5.96-2.84,11.63-3.23,17.64
		c-0.38,5.84,1.24,10.9,4.35,15.77c-3.89-7.11-4.07-13.99-1.96-21.76c1.1-4.05,2.77-8.06,3.26-12.26c0.11-0.95-0.36-3.26,0.04-4.03
		c1.15-2.28,2.28-4.57,3.33-6.9c1.32,20.29,6.1,40.12,8.79,60.23c-0.98-14.79-3.07-29.47-4.13-44.25
		c8.08-16.93,10.97-35.79,15.38-53.89c1.2,2.83,3.06,5.37,3.99,8.31c0.97,3.25,0.62,6.76-0.17,10c-1.16,4.73-3.29,9.16-5.24,13.6
		c3.47-6.67,7.93-13.93,7.37-21.74c-0.28-3.98-2.49-7.25-3.78-10.93c-0.9-2.58-0.43-6.38,0.29-8.95c4.25,5.36,9.54,8.21,9.37,15.75
		c-0.16,7.29-4.45,13.7-8.16,19.68c6.42-8.97,14.46-21.11,5.92-31.36c-1.76-2.12-3.86-3.98-5.32-6.34
		c-1.48-2.38,1.08-6.44,2.27-8.75c1.35-2.63,5.49-3.99,7.9-5.75c2.66-1.94,5.22-4.03,7.78-6.1c-0.35,9.79,1.6,19.52,3.35,29.09
		c0.89,4.88,1.84,9.74,2.53,14.65c0.35,2.49,0.87,4.02-0.59,6.21c-1.21,1.79-2.68,3.38-4.22,4.9c-7.17,7.08-14.92,13.79-20.51,22.27
		c-4.82,7.31-6.7,15.28-6.93,23.93c0.67-7.19,2.34-13.94,6.28-20.08c4.55-7.09,11.14-12.9,17.48-18.35
		c-6.6,10.96-13.53,20.99-13.39,34.25c0.55-9.83,4.71-17.75,10.32-25.69c-1.44,9.01-2.18,18.26,0.23,27.14
		c-1.85-9.23-0.79-19.86,2.09-28.83c1.89-5.87,6.54-11.01,10.64-15.56c0.87,6.27,1.39,12.65,1.82,18.97
		c0.51,7.48,1.2,14.86,0.29,22.34c-0.73-0.02-1.37,1.2-2.06,1.83c-1.76,1.6-3.71,2.91-5.77,4.09c-4.64,2.67-9.43,5-14.01,7.79
		c-8.03,5.01-13.81,11.02-16.29,20.29c2.55-7.51,7.17-12.87,13.97-16.95c7.46-4.48,16.51-6.75,23.42-12.04
		c-1.17,6.74-2.83,13.35-4.88,19.87c-1.57,4.98-6.01,8.32-9.84,11.7c-10.88,9.59-18.45,20.44-19.39,35.27
		c0.97-7.42,3.38-14.07,7.74-20.22c5.21-7.36,12.68-11.81,19.28-17.72c0.3,1.4-0.72,3.59-1.03,4.98c-0.55,2.49-1.06,4.99-1.49,7.5
		c-0.86,5.02-1.38,10.1-1.31,15.19c0.12,8.02,2.02,15.46,5.55,22.63c-6.06-14.72-4.16-29.7,0.24-44.64
		c4.03,8.49,9.44,18.56,4.85,27.9c3.73-6.48,2.23-13.59,0.17-20.35c-1.03-3.4-3.26-6.79-3.83-10.27c-0.26-1.56,0.65-3.21,1.12-4.66
		c0.84-2.56,1.7-5.11,2.56-7.67c1.5,6.98,5.32,13.37,7.36,20.2c1.89,6.32,1.7,11.96-0.83,18.02c5.16-10.33,1.78-20.05-1.62-30.45
		c-1.37-4.2-3.97-10.48-2.55-14.93c2.07-6.51,3.92-13.11,4.92-19.88c2.25,2.69,3.06,6.86,3.89,10.16c1.09,4.33,2.22,8.69,3.06,13.07
		c1.5,7.7,1.9,16.87-3.7,23.11c7.48-7.28,6.23-19.28,4.49-28.59c4.45,4.82,6.14,10.53,6.43,16.94c0.14-6.3-1.1-11.92-4.94-17.07
		c-0.87-1.17-1.85-1.93-2.08-3.39c-0.32-1.95-0.63-3.89-1-5.83c-0.63-3.26-1.34-6.75-3.02-9.65c-0.64-1.1-1.49-2.14-2.66-2.69
		c0.17-1.93,0.23-3.86,0.25-5.79c0.02-3.11,0-6.22,0-9.34c-0.01-6.03-0.25-12.05-0.45-18.07c1.65,1.71,3.37,3.33,5.05,5
		c0.81,0.8,1.62,1.62,2.4,2.46c1.15,1.24,0.63,1.94,0.48,3.55c-0.38,3.99,0.04,7.82,0.89,11.71c-0.68-4.54-0.7-8.95,0.22-13.47
		c7.17,8.56-1.31,17.91-2.04,27.3c1.01-7.02,5.8-12.86,6.51-19.94c4.38,11.32,1.66,24.15,3.32,35.95
		c-0.82-11.23,1.94-22.61-0.25-33.75c-0.54-2.75-1.46-5.44-2.82-7.89c-0.73-1.32-1.59-2.58-2.49-3.79
		c-1.25-1.68-1.29-1.86-0.68-3.91c1.68-5.66,3.7-11.2,4.82-17.01c2.99,6.19,5.92,12.73,7.78,19.36c1.97,7,1.73,14.74,0.84,21.89
		c-1.87,15-9.79,28.74-9.27,44.16c2.81-9.09,5.97-18.13,9.76-26.85c3.87,12.69,10.3,25.21,6.51,38.73
		c3.6-10.21,1.32-20.81-1.66-30.9c-0.75-2.55-1.47-5.08-2.07-7.68c-0.25-1.09-0.51-2.18-0.77-3.26c-0.32-1.38,0.54-2.45,1.19-3.67
		c2.4-4.56,4.13-9.15,4.32-14.35c3.36,14.35,7.42,28.28,5.18,43.12c2.44-11.06,1.45-21.85-0.44-32.94
		c-1.1-6.41-2.36-12.8-3.03-19.27c-0.61-5.86-0.32-11.81-1.38-17.63c5.15,8.86,11.4,17.3,11.77,27.92
		c0.29,8.24-1.96,16.3-4.37,24.09c2.15-5.56,4.12-11.16,5.22-17.03c-0.83,13.51-3.29,26.74-1.95,40.32
		c-0.44-14.1,3.16-27.58,4.79-41.49c2.98,13,5.69,25.59,3.58,38.94c3-13.2,1.18-25.95-0.94-39.15c-1.84-11.49-2.39-22.98-2.99-34.57
		c4.36,7.57,7.67,15.51,9.03,24.18c1.41,8.99,0.99,18.12,1.8,27.17c1.36,15.23,7.14,28.91,14.02,42.39
		c-6-14.03-10.94-28.19-11.06-43.63c14.07,7.04,18.1,24.02,16.7,38.53c1.89-11.4,0.65-24.17-6.58-33.63
		c-1.75-2.29-3.79-4.41-6.17-6.06c-0.84-0.52-1.68-1.04-2.52-1.56c-1.79-0.95-1.41-1.1-1.36-3.23c0.17-7.04,0.57-14.07-0.1-21.1
		c2.41,6.41,5.54,12.64,9.46,18.27c-6.41-10.65-10.1-22.88-11.58-35.18c8.78,5.09,15.16,12.47,18.28,22.16
		c2.79,8.68,3.35,17.79,3.49,26.84c0.56-10.84,0.87-22.88-3.56-33.04c-2.49-5.72-5.69-10.45-10.28-14.72
		c-2.12-1.96-4.46-3.48-6.79-5.16c-2.41-1.74-1.73-4.32-1.72-7.1c3.05,2.71,6.22,5.32,9.67,7.51c3.01,1.91,5.49,4.45,8.27,6.7
		c1.54,1.24,3.11,2.43,4.82,3.44c2.13,1.25,2.41,2.48,3.31,4.78c1.63,4.13,3.24,8.27,4.83,12.41c0.78,2.04,1.56,4.07,2.33,6.11
		c0.82,2.17,0.81,2.7-0.09,4.75c-1.56,3.53-4.1,6.48-6.19,9.69c-3.96,6.09-5.61,11.98-5.31,19.17c0.12-4.62,0.79-8.86,2.94-13
		c2.9-5.56,7.83-9.71,10.65-15.29c6.78,18.29,14.2,38.99-1.22,55.03c10.15-9.24,12.53-21.6,10.42-34.82
		c-2.41-15.15-7.93-30.03-12.56-44.61c3.28,1.18,6.65,2.1,10.05,2.83c1.1,0.24,3.08,0.24,3.89,1.04c1.13,1.17,2.08,2.52,2.94,3.89
		c3.91,6.27,6.19,13.7,6.7,21.05c0.88,12.74-2,26.78-10.53,36.59c14.96-15.08,17.34-42.76,6.81-60.87c2.94,0.43,6.74,0.51,9.46,1.85
		c2.92,1.44,5.79,5.27,7.47,7.94c5.18,8.27,4.45,17.73,1.74,26.69c4.6-12.2,4.22-24.73-5.27-34.53c2.08,0.32,4.17,0.64,6.25,0.98
		c1.45,0.24,6.43,0.44,6.41,1.88c-0.06,4.07,2.94,7.35,4.53,10.87c1.18,2.64,2.4,5.53,2.92,8.39c0.49,2.66-3.15,7.06-4.53,9.13
		c-4.88,7.34-9.52,14.64-11.11,23.47c-1.52,8.42,0.38,16.47,3.72,24.19c-3.28-9.24-4.31-18.6-0.83-27.98
		c3.55-9.57,11.31-16.18,15.79-25.13c2.28,7.15,2.5,14.66,4.44,21.89c2.18,5.88,7.86,9.4,10.8,14.85
		c-2.17-4.77-6.27-8.14-8.66-12.74c-2.78-4.22-2.08-11.36-2.48-16.16c-0.43-5.1-1.64-10.01-3.53-14.76
		c-1.18-2.96-2.61-5.79-4.05-8.63c-1.05-2.12-2.79-4.73-2.65-7.2c4.01,0.93,8,2.08,11.76,3.77c-0.17,3.36,0.14,6.67,1.24,9.85
		c-0.85-3.14-0.97-6.34-0.61-9.57c6.72,3.21,11.43,8.58,11.68,16.28c0.22,6.8-2.4,13.36-5.07,19.49c4.54-8.75,9.41-19.78,4.26-29.34
		c-1.22-2.27-2.96-4.2-4.94-5.84c-0.84-0.7-1.73-1.34-2.64-1.94c-1.55-1.01-2.98-0.99-2.65-3c0.49-2.96,1.04-5.92,1.06-8.94
		c-0.02-2.65-0.65-5.21-0.77-7.86c2.72,3.22,5.12,6.73,7.29,10.35c2.16,3.61,3.13,6.94,3.92,11.1c1.27,6.76,1.86,13.6,2.39,20.44
		c-0.09-8.3-0.28-16.6-1.62-24.81c3.04,3.42,6.88,5.7,11.45,6.25c-2.9-0.55-5.59-1.76-7.84-3.69c-1.21-1.03-2.26-2.24-3.21-3.51
		c-1.28-1.73-1.35-4.16-1.89-6.23c-1.84-7.13-4.91-13.98-9.61-19.68c5.17,0.58,10.19,2.2,14.81,4.59c1.58,3.78,3.66,7.15,6.56,10.06
		c-2.46-2.83-4.23-5.98-5.51-9.5c8.04,4.41,14.78,10.97,20.08,18.41c-2.13-4.98-5.19-9.66-8.65-13.81
		c-3.06-3.66-6.6-6.96-10.64-9.53c-1.4-0.89-2.56-1.04-2.92-2.74c-0.36-1.7-0.67-3.4-0.95-5.12c-0.52-3.18-0.96-6.37-1.52-9.54
		c4.28-0.23,8.59-0.16,12.81,0.67c1.95,0.38,3.88,0.9,5.75,1.57c2.39,0.84,3.33,1.27,4.39,3.62c2.86,6.33,3.82,13.31,4.61,20.15
		c-0.35-7.23-0.92-14.58-3.61-21.37c0.88,0.47,0.85,0.85,2.34,1.38c2,1.26,3.88,2.7,5.64,4.28c3.85,3.48,7.03,7.65,9.59,12.17
		c4.27,7.55,6.5,15.74,7.7,24.28c-0.92-12.7-4.41-25.15-12.51-35.24c7.83,3.3,15.76,6.67,22.82,11.62c3.68,2.58,5.55,5.25,6.84,9.51
		c1.1,3.61,2.17,8.97,6.32,10.29c-6.55-2.6-4.28-12.95-8.44-17.62c-4.4-5.13-11.27-9.11-17.27-11.93c5.97,0.6,10.48-3.44,16.3-0.42
		c5.84,2.89,11.1,5.44,17.42,7.23c-3.59-1.28-7.24-2.53-10.59-4.38c-3.92-2.17-7.29-5.45-11.94-5.87c-4.18-0.38-7.89,1.88-12.2,0.81
		c-5.06-1.26-9.46-3.79-14.04-6.21c-3.56-1.88-7.13-3.66-10.73-5.35c-2.43-3.86-5.65-7.1-9.45-9.63c-3.95-2.62-8.53-3.91-12.85-5.76
		c-3.78-1.62-4.25-4.06-5.94-7.74c11.75,1.24,23.1,3.63,34.21,7.71c9.69,3.56,13.41,15.57,18.59,23.68
		c-3.77-6.87-6.22-14.71-11.31-20.79c5.22,2.23,10.33,4.73,15.28,7.51c1,0.56,2.07,0.76,2.09,1.98c0.02,1.44,0.02,2.89,0.04,4.33
		c0.02,1.41,0.04,2.83,0.08,4.24c0.12-3,0.31-6,0.47-9c1.31,0.78,2.62,1.58,3.9,2.43c-0.43-0.35-0.87-0.7-1.3-1.04
		c-1.91-1.5-2.56-1.66-2.46-4.17c0.14-3.52,0.19-7.06-0.07-10.58c-0.5-6.8-2.19-13.56-6.59-18.94c6.27,0.25,13.08,2.25,17.3,7.21
		c4.38,5.17,2.73,12.77,6.55,18.21c3.94,5.95,11.27,8.19,17.98,9.25c5.79,0.91,13.86-0.81,17.66,4.89
		c-2.1-4.12-7.55-4.95-11.67-5.42c-5.99-0.69-12.03-1.78-17.14-5.22c-4.55-2.99-5.95-7.38-6.62-12.51
		c-0.79-6.07-2.15-11.01-6.95-15.13c4.35,0.6,8.82,1.29,12.87,3.03c4.7,2.03,7.58,4,10.06,8.58c4.53,8.39,6.82,17.61,17.32,19.67
		c-11.29-3.02-11.85-13.96-16.87-22.82C525.34,490.63,533.47,493.73,542.53,491.36z M173.41,510.97c0.01-0.02-0.03,0.02-0.2,0.2
		c-0.13,0.17-0.17,0.22-0.17,0.23c-4.22,5.56-4.55,11.54-1.53,17.78c0.98,1.66,1.58,2.1,0.54,3.84c-1.14,1.9-2.56,3.63-4.02,5.3
		c-3.11,3.56-6.43,6.64-8.42,10.99c-2.21-3.79-4.61-7.56-6.38-11.58c-0.74-1.68-1.36-3.02-0.88-4.81c0.69-2.58,1.36-5.15,2.06-7.72
		c2.55-9.47,5.31-18.98,9.67-27.8c8.06-16.32,23.01-26.59,37.82-36.32c-7.78,14.35-15.29,29.76-27.8,40.58
		c9.11-6.87,15.44-15.6,21.57-25.13c3.54-5.49,7.22-10.88,10.74-16.37c1.47-2.3,2.55-3.7,4.8-5.23c2.68-1.81,5.35-3.61,8.02-5.42
		c-2.89,5.19-4.56,10.59-5.83,16.34c-1.72,7.3-5.61,13.84-10.32,19.6c-4.18,5.12-9.01,9.59-14.09,13.79
		C183.95,503.42,177.99,506.18,173.41,510.97z M189.23,556.06c-0.26-1.07-0.11-0.46-0.03-0.13c-1.75-7.17-4.16-14.17-7.71-20.67
		c-1.96-3.59-5.99-8.24-5.96-12.56c-0.35-5,3.36-8.15,7.36-10.61c6.33-3.88,13.27-6.27,18.76-11.51
		c-3.69,8.65-11.07,15.11-11.99,24.75c-0.52,5.51-0.44,11.18,0.98,16.56c0.71,2.71-0.23,5.18-0.58,7.95
		c-0.31,2.4-0.47,4.81-0.59,7.23C189.39,556.73,189.31,556.39,189.23,556.06z M206.49,536.75c-2.07,14.91-11.48,28.33-16.19,42.44
		c1.03-5.87,0.72-11.64-0.05-17.51c-0.74-5.64-0.03-10.72,1.52-16.25c1.27,3.34,3.1,6.16,5.26,8.99c-1.27-1.93-2.5-3.82-3.41-5.96
		c-0.59-1.39-1.08-2.82-1.48-4.28c0.56-1.81,1.21-3.59,1.99-5.31c3.05-6.77,7.91-11.09,13.51-15.7
		C206.96,527.66,206.6,532.21,206.49,536.75z M224.16,504.02c-0.03,0.15-0.07,0.34-0.12,0.63c-0.14,0.81-0.18,1.03-0.16,0.96
		c-3.43,19.77-4.98,40.67-12.47,59.4c-1.73-24.49,0.11-49.27,14.77-69.94C225.33,498.01,224.74,501.01,224.16,504.02z
		 M235.37,468.29c-2.62,3.67-0.99,1.38-0.21,0.3c-8.52,11.91-17.92,23.24-23.06,37.13c-1.33,3.59-2.39,7.28-3.23,11.02
		c-0.66,2.93-3.98,5.11-6.14,7.02c-5.46,4.83-9.15,11.22-11.1,18.21c-1.68-8.43-1.36-19.83,4.61-26.63
		c3.49-3.97,6.38-8.14,8.8-12.86c1.25-2.44,2.39-4.94,3.49-7.46c1.26-2.84,2.79-4.66,4.76-7.04c5.03-6.09,8.39-13.17,12.51-19.85
		c1.24-2.01,2.38-4.95,4.98-5.07c1.96-0.08,4.08-0.09,5.95,0.57C239.28,464.56,236.46,466.74,235.37,468.29z M277.63,522.37
		c-0.01,0.08-0.03,0.17-0.05,0.29c-0.82,5.49-2.45,10.81-3.6,16.23c-2.63-3.09-5.44-6.03-7.93-9.24c-1.11-1.43-1.02-4.09-1.31-5.83
		c-1.39-8.45-2.23-17.01-3.1-25.52c3.8,3.27,7.63,6.56,10.96,10.32c1.63,1.84,3.13,3.8,4.44,5.88
		C278.61,517.01,278.11,519.55,277.63,522.37z M301.88,532.26c0.61,1.23,1.08,2.17-0.09-0.18c-1.49-2.99-0.82-1.65-0.12-0.24
		c-2.3-4.61-4.58-9.24-6.71-13.93c-2.32-5.14-3.7-9.99-4.98-15.46c-1.09-4.67-2.26-9.33-3.73-13.89c-0.94-2.94-1.9-6.5-3.94-8.9
		c0.9,1.17,1.81,2.34,2.73,3.5c2.14,2.71,2.98,5.27,4.29,8.43c2.78,6.71,6.53,12.97,10.43,19.07c1.86,2.91,3.78,5.78,5.67,8.67
		c0.59,2.87,1.16,5.72,1.55,8.62c0.91,6.74,1.44,13.53,2.28,20.29C307.44,542.63,304.51,537.5,301.88,532.26z M303.09,479.11
		c0.52-3.77,2.07-7.58,4.53-10.49c6.81,12.43,11.04,25.06,11.83,39.28C311.06,500.82,301.95,490.98,303.09,479.11z M320.74,532.83
		c-2.95-6.93-6.66-13.5-10.38-20.03c2.86,3.04,5.78,6.03,8.8,8.92c1.5,1.44,1.03,4.09,1.2,6.13
		C320.49,529.42,320.92,531.36,320.74,532.83z M356.39,454.82c0.01,0,0.04,0,0.09,0.01c10.72,0.85,21.36,2.38,31.9,4.49
		c4.6,0.92,8.3,4.41,11.84,7.36c4.43,3.69,8.56,7.71,12.2,12.19c-12.81-1.12-26.91-2.3-38.85-7.54c-0.98-0.43-2.15-0.88-2.96-1.61
		c-5.44-4.83-10.71-9.88-15.87-15.02C355.29,454.74,355.84,454.78,356.39,454.82z M324.43,511.83c-0.18-0.13-0.37-0.27-0.59-0.43
		c0.21-7.53,0.09-15.12-1.46-22.52c3.47,5.57,7.04,11.08,10.28,16.79c3.14,5.52,5.23,11.19,7.33,17.16
		C334.86,519.07,329.5,515.65,324.43,511.83z M348.38,525.1c-1.83-6.6-3.38-13.29-6.12-19.58c-2.75-6.3-6.11-12.31-9.34-18.36
		c3.97,2.62,7.99,5.15,12.09,7.55c2.21,1.29,4.44,2.55,6.69,3.77c2.46,1.33,4.53,1.81,5.49,4.53c2.93,8.39,3.57,17.74,9.4,24.84
		c-3.42,0.04-6.84,0-10.25-0.22c-1.5-0.1-3-0.24-4.49-0.44C349.84,526.91,348.91,527.14,348.38,525.1z M388.61,534.48
		c0.65,1.53,1.22,3.09,1.71,4.68c-3.47-1.14-6.98-2.18-10.36-3.6C382.86,535.25,385.74,534.89,388.61,534.48z M369.05,527.8
		c-2.45-3.01-3.92-6.44-4.92-10.17c5.47,5.02,12.83,5.76,18.93,9.52C378.4,527.44,373.73,527.68,369.05,527.8z M385.34,527.01
		c-5.39-4.8-13.07-5.82-18.44-10.78c-3.44-3.18-4.69-8.58-5.78-12.98c3.86,1.83,7.76,3.55,11.76,5.06c1.94,0.74,3.89,1.47,5.87,2.11
		c1.59,1.13,3.24,2.17,4.95,3.1c7.94,4.3,16.44,7.49,24.27,12.01C400.41,525.93,392.88,526.52,385.34,527.01z M417.98,554.05
		c-0.13,1.25-0.25,2.49-0.37,3.74c-10.73-5.38-23.1-7.52-34.74-9.99c-5.69-1.21-11.38-2.38-16.98-3.98
		c-2.42-0.69-4.87-1.5-7.16-2.53c-2.04-0.91-6.01-1.95-6.71-4.21c8.6,0.07,17.21-0.44,25.76-1.29c3.56,1.41,7.31,2.3,11.02,3.22
		c2.05,0.51,1.95,1.25,2.38,3.39c0.34,1.7,0.5,3.38,0.51,5.11c0.15-2.7-0.1-5.3-0.69-7.94c0.83,0.22,1.67,0.44,2.5,0.66
		c-0.85-0.29-1.7-0.57-2.55-0.86c-0.39-1.7-0.87-3.37-1.44-5.02c4.36-0.64,8.71-1.39,13.02-2.33c1.7-0.37,3.39-0.81,5.09-1.16
		c1.43,0.79,2.84,1.57,4.18,2.51c1.23,0.87,2.39,1.79,3.48,2.83c1.02,0.97,1.53,1.19,1.52,2.55c-0.04,0.97,0.11,1.95,0.28,2.89
		c0.76,4.22,1.28,7.92,0.91,12.22C418.04,553.39,418.09,552.9,417.98,554.05z M420.44,536.66c2.28,3.16,4.1,6.65,5.56,10.26
		c-0.42-1.04-1.24-3.19,0.2,0.46c-3.6-6.47-7.73-12.61-13.63-17.2C415.98,529.92,418.57,534.06,420.44,536.66z M432.35,528.27
		c-5.62-2.63-11.41-3.27-17.54-3.07c-4.84-4.15-10.56-7.22-16.14-10.26c7.61,0.68,15.15-0.05,22.71-0.91
		c1.65-0.19,3.3-0.37,4.96-0.53c0.81-0.08,1.63-0.15,2.44-0.21c0.3,1.21,0.59,2.43,0.86,3.65
		C430.51,520.72,431.29,524.53,432.35,528.27z M433.79,501.95c-0.79-0.24,0.1,0.04,0.69,0.22c-0.11-0.03-0.21-0.07-0.31-0.11
		c1.09,0.35,0.81,0.26,0.31,0.11c5.46,1.76,10.32,4.38,14.25,8.68c-3.83-1.4-7.8-2.25-11.86-2.62c-2.26-0.21-4.53-0.28-6.8-0.29
		c-0.57-2.63-1.22-5.24-1.99-7.82C429.95,500.81,431.88,501.37,433.79,501.95z M427.35,507.96c-9.41,0.19-18.72,1.07-28.09-0.34
		c-8.3-1.26-16.35-4.64-23.92-8.12c-18.97-8.71-36.36-21.71-51.81-35.63c8.38,1.55,15.44,6.67,23.08,10.1
		c4.21,1.89,8.53,3.54,12.93,4.94c2.36,0.76,4.73,1.45,7.12,2.08c2.26,0.6,4.92,0.83,6.93,2.02c6.94,4.12,12.59,9.72,19.12,14.4
		c6.81,4.88,13.47,5.03,21.55,4.62c-7.32-0.11-13.62-0.34-19.68-5.04c-5.16-3.99-9.45-9.01-14.56-13.07
		c9.9,1.79,19.91,2.85,29.91,3.84c2.66,0.27,5.33,0.53,7.99,0.79c2.25,0.23,3.06,3.13,4.02,5.07
		C424.16,498.23,425.91,503.06,427.35,507.96z M480.91,489.76c1.57,5.87,1.87,12,1.98,18.04c-10.43-7.69-21.71-14.37-33.59-19.56
		c-7.92-3.46-16.17-6.25-24.66-7.87c-1.96-0.38-3.93-0.69-5.91-0.93c-1.42-2.24-2.94-4.42-4.57-6.52c-2.75-3.55-5.8-6.86-9.02-9.99
		c14.43,3.35,28.59,7.05,43.18,9.57c6.48,1.12,12.97,2.25,19.47,3.26c1.72,0.27,4,0.16,5.42,1.2
		C477.24,479.92,479.69,485.03,480.91,489.76z"/>
</g>
</svg>
